solid tracker
facet normal 0.0 0.0 -1.0
  outer loop
    vertex 142.54831965323424 323.82908685826766 0.0
    vertex 72.54831965323424 253.82908685826763 0.0
    vertex 72.54831965323424 323.82908685826766 0.0
  endloop
endfacet
facet normal 0.0 0.0 -1.0
  outer loop
    vertex 72.54831965323424 253.82908685826763 0.0
    vertex 142.54831965323424 323.82908685826766 0.0
    vertex 142.54831965323424 253.82908685826763 0.0
  endloop
endfacet
facet normal 1.0 0.0 0.0
  outer loop
    vertex 74.54831965323424 321.82908685826766 2.0000000000000018
    vertex 74.54831965323424 255.82908685826763 30.0
    vertex 74.54831965323424 255.82908685826763 2.0000000000000018
  endloop
endfacet
facet normal 1.0 0.0 0.0
  outer loop
    vertex 74.54831965323424 255.82908685826763 30.0
    vertex 74.54831965323424 321.82908685826766 2.0000000000000018
    vertex 74.54831965323424 321.82908685826766 30.0
  endloop
endfacet
facet normal -0.0 -1.0 -0.0
  outer loop
    vertex 140.54831965323424 321.82908685826766 2.0000000000000018
    vertex 113.14831965323424 321.82908685826766 17.5
    vertex 74.54831965323424 321.82908685826766 2.0000000000000018
  endloop
endfacet
facet normal -0.0 -1.0 -0.0
  outer loop
    vertex 113.14831965323424 321.82908685826766 17.5
    vertex 140.54831965323424 321.82908685826766 2.0000000000000018
    vertex 140.54831965323424 321.82908685826766 30.0
  endloop
endfacet
facet normal -0.0 -1.0 -0.0
  outer loop
    vertex 113.14831965323424 321.82908685826766 17.5
    vertex 140.54831965323424 321.82908685826766 30.0
    vertex 113.14831965323424 321.82908685826766 19.000000000000004
  endloop
endfacet
facet normal -0.0 -1.0 -0.0
  outer loop
    vertex 113.14831965323424 321.82908685826766 19.000000000000004
    vertex 140.54831965323424 321.82908685826766 30.0
    vertex 112.54831965323424 321.82908685826766 19.000000000000004
  endloop
endfacet
facet normal -0.0 -1.0 -0.0
  outer loop
    vertex 112.54831965323424 321.82908685826766 19.000000000000004
    vertex 140.54831965323424 321.82908685826766 30.0
    vertex 113.14831965323424 321.82908685826766 21.000000000000004
  endloop
endfacet
facet normal -0.0 -1.0 -0.0
  outer loop
    vertex 113.14831965323424 321.82908685826766 21.000000000000004
    vertex 140.54831965323424 321.82908685826766 30.0
    vertex 113.14831965323424 321.82908685826766 22.500000000000004
  endloop
endfacet
facet normal -0.0 -1.0 -0.0
  outer loop
    vertex 113.14831965323424 321.82908685826766 22.500000000000004
    vertex 140.54831965323424 321.82908685826766 30.0
    vertex 101.14831965323427 321.82908685826766 22.500000000000004
  endloop
endfacet
facet normal -0.0 -1.0 -0.0
  outer loop
    vertex 74.54831965323424 321.82908685826766 2.0000000000000018
    vertex 101.14831965323427 321.82908685826766 17.5
    vertex 74.54831965323424 321.82908685826766 30.0
  endloop
endfacet
facet normal -0.0 -1.0 -0.0
  outer loop
    vertex 101.14831965323427 321.82908685826766 17.5
    vertex 74.54831965323424 321.82908685826766 2.0000000000000018
    vertex 113.14831965323424 321.82908685826766 17.5
  endloop
endfacet
facet normal -0.0 -1.0 -0.0
  outer loop
    vertex 74.54831965323424 321.82908685826766 30.0
    vertex 101.14831965323427 321.82908685826766 17.5
    vertex 101.14831965323427 321.82908685826766 19.000000000000004
  endloop
endfacet
facet normal -0.0 -1.0 -0.0
  outer loop
    vertex 74.54831965323424 321.82908685826766 30.0
    vertex 101.14831965323427 321.82908685826766 19.000000000000004
    vertex 101.14831965323427 321.82908685826766 21.000000000000004
  endloop
endfacet
facet normal -0.0 -1.0 -0.0
  outer loop
    vertex 101.14831965323427 321.82908685826766 21.000000000000004
    vertex 101.14831965323427 321.82908685826766 19.000000000000004
    vertex 101.74831965323426 321.82908685826766 21.000000000000004
  endloop
endfacet
facet normal -0.0 -1.0 -0.0
  outer loop
    vertex 74.54831965323424 321.82908685826766 30.0
    vertex 101.14831965323427 321.82908685826766 21.000000000000004
    vertex 101.14831965323427 321.82908685826766 22.500000000000004
  endloop
endfacet
facet normal -0.0 -1.0 -0.0
  outer loop
    vertex 74.54831965323424 321.82908685826766 30.0
    vertex 101.14831965323427 321.82908685826766 22.500000000000004
    vertex 140.54831965323424 321.82908685826766 30.0
  endloop
endfacet
facet normal -0.0 -1.0 -0.0
  outer loop
    vertex 112.54831965323424 321.82908685826766 21.000000000000004
    vertex 112.54831965323424 321.82908685826766 19.000000000000004
    vertex 113.14831965323424 321.82908685826766 21.000000000000004
  endloop
endfacet
facet normal -0.0 -1.0 -0.0
  outer loop
    vertex 101.74831965323426 321.82908685826766 21.000000000000004
    vertex 101.14831965323427 321.82908685826766 19.000000000000004
    vertex 101.74831965323426 321.82908685826766 19.000000000000004
  endloop
endfacet
facet normal 0.0 1.0 0.0
  outer loop
    vertex 74.54831965323424 255.82908685826763 30.0
    vertex 140.54831965323424 255.82908685826763 2.0000000000000018
    vertex 74.54831965323424 255.82908685826763 2.0000000000000018
  endloop
endfacet
facet normal 0.0 1.0 0.0
  outer loop
    vertex 140.54831965323424 255.82908685826763 2.0000000000000018
    vertex 74.54831965323424 255.82908685826763 30.0
    vertex 140.54831965323424 255.82908685826763 30.0
  endloop
endfacet
facet normal -1.0 0.0 0.0
  outer loop
    vertex 140.54831965323424 321.82908685826766 30.0
    vertex 140.54831965323424 255.82908685826763 2.0000000000000018
    vertex 140.54831965323424 255.82908685826763 30.0
  endloop
endfacet
facet normal -1.0 0.0 0.0
  outer loop
    vertex 140.54831965323424 255.82908685826763 2.0000000000000018
    vertex 140.54831965323424 321.82908685826766 30.0
    vertex 140.54831965323424 321.82908685826766 2.0000000000000018
  endloop
endfacet
facet normal -1.0 0.0 0.0
  outer loop
    vertex 72.54831965323424 323.82908685826766 30.0
    vertex 72.54831965323424 253.82908685826763 0.0
    vertex 72.54831965323424 253.82908685826763 30.0
  endloop
endfacet
facet normal -1.0 0.0 0.0
  outer loop
    vertex 72.54831965323424 253.82908685826763 0.0
    vertex 72.54831965323424 323.82908685826766 30.0
    vertex 72.54831965323424 323.82908685826766 0.0
  endloop
endfacet
facet normal 0.0 0.0 1.0
  outer loop
    vertex 72.54831965323424 253.82908685826763 30.0
    vertex 74.54831965323424 255.82908685826763 30.0
    vertex 72.54831965323424 323.82908685826766 30.0
  endloop
endfacet
facet normal 0.0 0.0 1.0
  outer loop
    vertex 74.54831965323424 255.82908685826763 30.0
    vertex 72.54831965323424 253.82908685826763 30.0
    vertex 142.54831965323424 253.82908685826763 30.0
  endloop
endfacet
facet normal 0.0 0.0 1.0
  outer loop
    vertex 74.54831965323424 255.82908685826763 30.0
    vertex 142.54831965323424 253.82908685826763 30.0
    vertex 140.54831965323424 255.82908685826763 30.0
  endloop
endfacet
facet normal 0.0 0.0 1.0
  outer loop
    vertex 140.54831965323424 255.82908685826763 30.0
    vertex 142.54831965323424 253.82908685826763 30.0
    vertex 140.54831965323424 321.82908685826766 30.0
  endloop
endfacet
facet normal 0.0 0.0 1.0
  outer loop
    vertex 72.54831965323424 323.82908685826766 30.0
    vertex 74.54831965323424 321.82908685826766 30.0
    vertex 142.54831965323424 323.82908685826766 30.0
  endloop
endfacet
facet normal 0.0 0.0 1.0
  outer loop
    vertex 74.54831965323424 321.82908685826766 30.0
    vertex 72.54831965323424 323.82908685826766 30.0
    vertex 74.54831965323424 255.82908685826763 30.0
  endloop
endfacet
facet normal 0.0 0.0 1.0
  outer loop
    vertex 142.54831965323424 323.82908685826766 30.0
    vertex 74.54831965323424 321.82908685826766 30.0
    vertex 140.54831965323424 321.82908685826766 30.0
  endloop
endfacet
facet normal 0.0 0.0 1.0
  outer loop
    vertex 142.54831965323424 323.82908685826766 30.0
    vertex 140.54831965323424 321.82908685826766 30.0
    vertex 142.54831965323424 253.82908685826763 30.0
  endloop
endfacet
facet normal 1.0 0.0 0.0
  outer loop
    vertex 142.54831965323424 323.82908685826766 0.0
    vertex 142.54831965323424 253.82908685826763 30.0
    vertex 142.54831965323424 253.82908685826763 0.0
  endloop
endfacet
facet normal 1.0 0.0 0.0
  outer loop
    vertex 142.54831965323424 253.82908685826763 30.0
    vertex 142.54831965323424 323.82908685826766 0.0
    vertex 142.54831965323424 323.82908685826766 30.0
  endloop
endfacet
facet normal -0.0 -1.0 -0.0
  outer loop
    vertex 142.54831965323424 253.82908685826763 30.0
    vertex 72.54831965323424 253.82908685826763 0.0
    vertex 142.54831965323424 253.82908685826763 0.0
  endloop
endfacet
facet normal -0.0 -1.0 -0.0
  outer loop
    vertex 72.54831965323424 253.82908685826763 0.0
    vertex 142.54831965323424 253.82908685826763 30.0
    vertex 72.54831965323424 253.82908685826763 30.0
  endloop
endfacet
facet normal 0.0 1.0 0.0
  outer loop
    vertex 112.54831965323424 323.82908685826766 21.000000000000004
    vertex 113.14831965323424 323.82908685826766 19.000000000000004
    vertex 112.54831965323424 323.82908685826766 19.000000000000004
  endloop
endfacet
facet normal 0.0 1.0 0.0
  outer loop
    vertex 101.74831965323426 323.82908685826766 21.000000000000004
    vertex 101.74831965323426 323.82908685826766 19.000000000000004
    vertex 101.14831965323427 323.82908685826766 21.000000000000004
  endloop
endfacet
facet normal 0.0 1.0 0.0
  outer loop
    vertex 72.54831965323424 323.82908685826766 0.0
    vertex 101.14831965323427 323.82908685826766 17.5
    vertex 142.54831965323424 323.82908685826766 0.0
  endloop
endfacet
facet normal 0.0 1.0 0.0
  outer loop
    vertex 101.14831965323427 323.82908685826766 17.5
    vertex 72.54831965323424 323.82908685826766 0.0
    vertex 72.54831965323424 323.82908685826766 30.0
  endloop
endfacet
facet normal 0.0 1.0 0.0
  outer loop
    vertex 101.14831965323427 323.82908685826766 17.5
    vertex 72.54831965323424 323.82908685826766 30.0
    vertex 101.14831965323427 323.82908685826766 19.000000000000004
  endloop
endfacet
facet normal 0.0 1.0 0.0
  outer loop
    vertex 101.14831965323427 323.82908685826766 19.000000000000004
    vertex 72.54831965323424 323.82908685826766 30.0
    vertex 101.74831965323426 323.82908685826766 19.000000000000004
  endloop
endfacet
facet normal 0.0 1.0 0.0
  outer loop
    vertex 101.74831965323426 323.82908685826766 19.000000000000004
    vertex 72.54831965323424 323.82908685826766 30.0
    vertex 101.14831965323427 323.82908685826766 21.000000000000004
  endloop
endfacet
facet normal 0.0 1.0 0.0
  outer loop
    vertex 101.14831965323427 323.82908685826766 21.000000000000004
    vertex 72.54831965323424 323.82908685826766 30.0
    vertex 101.14831965323427 323.82908685826766 22.500000000000004
  endloop
endfacet
facet normal 0.0 1.0 0.0
  outer loop
    vertex 101.14831965323427 323.82908685826766 22.500000000000004
    vertex 72.54831965323424 323.82908685826766 30.0
    vertex 113.14831965323424 323.82908685826766 22.500000000000004
  endloop
endfacet
facet normal 0.0 1.0 0.0
  outer loop
    vertex 142.54831965323424 323.82908685826766 0.0
    vertex 113.14831965323424 323.82908685826766 17.5
    vertex 142.54831965323424 323.82908685826766 30.0
  endloop
endfacet
facet normal 0.0 1.0 0.0
  outer loop
    vertex 113.14831965323424 323.82908685826766 17.5
    vertex 142.54831965323424 323.82908685826766 0.0
    vertex 101.14831965323427 323.82908685826766 17.5
  endloop
endfacet
facet normal 0.0 1.0 0.0
  outer loop
    vertex 142.54831965323424 323.82908685826766 30.0
    vertex 113.14831965323424 323.82908685826766 17.5
    vertex 113.14831965323424 323.82908685826766 19.000000000000004
  endloop
endfacet
facet normal 0.0 1.0 0.0
  outer loop
    vertex 142.54831965323424 323.82908685826766 30.0
    vertex 113.14831965323424 323.82908685826766 19.000000000000004
    vertex 113.14831965323424 323.82908685826766 21.000000000000004
  endloop
endfacet
facet normal 0.0 1.0 0.0
  outer loop
    vertex 113.14831965323424 323.82908685826766 21.000000000000004
    vertex 113.14831965323424 323.82908685826766 19.000000000000004
    vertex 112.54831965323424 323.82908685826766 21.000000000000004
  endloop
endfacet
facet normal 0.0 1.0 0.0
  outer loop
    vertex 142.54831965323424 323.82908685826766 30.0
    vertex 113.14831965323424 323.82908685826766 21.000000000000004
    vertex 113.14831965323424 323.82908685826766 22.500000000000004
  endloop
endfacet
facet normal 0.0 1.0 0.0
  outer loop
    vertex 142.54831965323424 323.82908685826766 30.0
    vertex 113.14831965323424 323.82908685826766 22.500000000000004
    vertex 72.54831965323424 323.82908685826766 30.0
  endloop
endfacet
facet normal 0.0 0.0 1.0
  outer loop
    vertex 101.74831965323426 321.82908685826766 21.000000000000004
    vertex 101.14831965323427 323.82908685826766 21.000000000000004
    vertex 101.14831965323427 321.82908685826766 21.000000000000004
  endloop
endfacet
facet normal 0.0 0.0 1.0
  outer loop
    vertex 101.14831965323427 323.82908685826766 21.000000000000004
    vertex 101.74831965323426 321.82908685826766 21.000000000000004
    vertex 101.74831965323426 323.82908685826766 21.000000000000004
  endloop
endfacet
facet normal 1.0 0.0 0.0
  outer loop
    vertex 101.14831965323427 323.82908685826766 21.000000000000004
    vertex 101.14831965323427 321.82908685826766 22.500000000000004
    vertex 101.14831965323427 321.82908685826766 21.000000000000004
  endloop
endfacet
facet normal 1.0 0.0 0.0
  outer loop
    vertex 101.14831965323427 321.82908685826766 22.500000000000004
    vertex 101.14831965323427 323.82908685826766 21.000000000000004
    vertex 101.14831965323427 323.82908685826766 22.500000000000004
  endloop
endfacet
facet normal 0.0 0.0 -1.0
  outer loop
    vertex 113.14831965323424 323.82908685826766 22.500000000000004
    vertex 101.14831965323427 321.82908685826766 22.500000000000004
    vertex 101.14831965323427 323.82908685826766 22.500000000000004
  endloop
endfacet
facet normal 0.0 0.0 -1.0
  outer loop
    vertex 101.14831965323427 321.82908685826766 22.500000000000004
    vertex 113.14831965323424 323.82908685826766 22.500000000000004
    vertex 113.14831965323424 321.82908685826766 22.500000000000004
  endloop
endfacet
facet normal -1.0 -0.0 -0.0
  outer loop
    vertex 113.14831965323424 323.82908685826766 22.500000000000004
    vertex 113.14831965323424 321.82908685826766 21.000000000000004
    vertex 113.14831965323424 321.82908685826766 22.500000000000004
  endloop
endfacet
facet normal -1.0 -0.0 -0.0
  outer loop
    vertex 113.14831965323424 321.82908685826766 21.000000000000004
    vertex 113.14831965323424 323.82908685826766 22.500000000000004
    vertex 113.14831965323424 323.82908685826766 21.000000000000004
  endloop
endfacet
facet normal 0.0 0.0 1.0
  outer loop
    vertex 113.14831965323424 321.82908685826766 21.000000000000004
    vertex 112.54831965323424 323.82908685826766 21.000000000000004
    vertex 112.54831965323424 321.82908685826766 21.000000000000004
  endloop
endfacet
facet normal 0.0 0.0 1.0
  outer loop
    vertex 112.54831965323424 323.82908685826766 21.000000000000004
    vertex 113.14831965323424 321.82908685826766 21.000000000000004
    vertex 113.14831965323424 323.82908685826766 21.000000000000004
  endloop
endfacet
facet normal -1.0 -0.0 -0.0
  outer loop
    vertex 112.54831965323424 323.82908685826766 21.000000000000004
    vertex 112.54831965323424 321.82908685826766 19.000000000000004
    vertex 112.54831965323424 321.82908685826766 21.000000000000004
  endloop
endfacet
facet normal -1.0 -0.0 -0.0
  outer loop
    vertex 112.54831965323424 321.82908685826766 19.000000000000004
    vertex 112.54831965323424 323.82908685826766 21.000000000000004
    vertex 112.54831965323424 323.82908685826766 19.000000000000004
  endloop
endfacet
facet normal 0.0 0.0 -1.0
  outer loop
    vertex 113.14831965323424 323.82908685826766 19.000000000000004
    vertex 112.54831965323424 321.82908685826766 19.000000000000004
    vertex 112.54831965323424 323.82908685826766 19.000000000000004
  endloop
endfacet
facet normal 0.0 0.0 -1.0
  outer loop
    vertex 112.54831965323424 321.82908685826766 19.000000000000004
    vertex 113.14831965323424 323.82908685826766 19.000000000000004
    vertex 113.14831965323424 321.82908685826766 19.000000000000004
  endloop
endfacet
facet normal -1.0 -0.0 -0.0
  outer loop
    vertex 113.14831965323424 323.82908685826766 19.000000000000004
    vertex 113.14831965323424 321.82908685826766 17.5
    vertex 113.14831965323424 321.82908685826766 19.000000000000004
  endloop
endfacet
facet normal -1.0 -0.0 -0.0
  outer loop
    vertex 113.14831965323424 321.82908685826766 17.5
    vertex 113.14831965323424 323.82908685826766 19.000000000000004
    vertex 113.14831965323424 323.82908685826766 17.5
  endloop
endfacet
facet normal 0.0 0.0 1.0
  outer loop
    vertex 113.14831965323424 321.82908685826766 17.5
    vertex 101.14831965323427 323.82908685826766 17.5
    vertex 101.14831965323427 321.82908685826766 17.5
  endloop
endfacet
facet normal 0.0 0.0 1.0
  outer loop
    vertex 101.14831965323427 323.82908685826766 17.5
    vertex 113.14831965323424 321.82908685826766 17.5
    vertex 113.14831965323424 323.82908685826766 17.5
  endloop
endfacet
facet normal 1.0 0.0 0.0
  outer loop
    vertex 101.14831965323427 323.82908685826766 17.5
    vertex 101.14831965323427 321.82908685826766 19.000000000000004
    vertex 101.14831965323427 321.82908685826766 17.5
  endloop
endfacet
facet normal 1.0 0.0 0.0
  outer loop
    vertex 101.14831965323427 321.82908685826766 19.000000000000004
    vertex 101.14831965323427 323.82908685826766 17.5
    vertex 101.14831965323427 323.82908685826766 19.000000000000004
  endloop
endfacet
facet normal 0.0 0.0 -1.0
  outer loop
    vertex 101.74831965323426 323.82908685826766 19.000000000000004
    vertex 101.14831965323427 321.82908685826766 19.000000000000004
    vertex 101.14831965323427 323.82908685826766 19.000000000000004
  endloop
endfacet
facet normal 0.0 0.0 -1.0
  outer loop
    vertex 101.14831965323427 321.82908685826766 19.000000000000004
    vertex 101.74831965323426 323.82908685826766 19.000000000000004
    vertex 101.74831965323426 321.82908685826766 19.000000000000004
  endloop
endfacet
facet normal 1.0 0.0 0.0
  outer loop
    vertex 101.74831965323426 323.82908685826766 19.000000000000004
    vertex 101.74831965323426 321.82908685826766 21.000000000000004
    vertex 101.74831965323426 321.82908685826766 19.000000000000004
  endloop
endfacet
facet normal 1.0 0.0 0.0
  outer loop
    vertex 101.74831965323426 321.82908685826766 21.000000000000004
    vertex 101.74831965323426 323.82908685826766 19.000000000000004
    vertex 101.74831965323426 323.82908685826766 21.000000000000004
  endloop
endfacet
facet normal 0.0 0.0 1.0
  outer loop
    vertex 140.54831965323424 255.82908685826763 2.0000000000000018
    vertex 74.54831965323424 321.82908685826766 2.0000000000000018
    vertex 74.54831965323424 255.82908685826763 2.0000000000000018
  endloop
endfacet
facet normal 0.0 0.0 1.0
  outer loop
    vertex 74.54831965323424 321.82908685826766 2.0000000000000018
    vertex 140.54831965323424 255.82908685826763 2.0000000000000018
    vertex 140.54831965323424 321.82908685826766 2.0000000000000018
  endloop
endfacet
endsolid tracker
