solid tracker
facet normal 1.0 -2.4651903288156613e-32 -8.326672684688672e-16
  outer loop
    vertex 142.54831965323424 253.82908685826763 144.5
    vertex 142.54831965323424 323.82908685826766 142.0
    vertex 142.54831965323424 323.82908685826766 144.5
  endloop
endfacet
facet normal 1.0 -2.4651903288156613e-32 -8.326672684688672e-16
  outer loop
    vertex 142.54831965323424 323.82908685826766 142.0
    vertex 142.54831965323424 253.82908685826763 144.5
    vertex 142.54831965323424 253.82908685826763 142.0
  endloop
endfacet
facet normal -1.3096323621833198e-32 -1.0 1.387778780781446e-17
  outer loop
    vertex 142.54831965323424 253.82908685826763 144.5
    vertex 72.54831965323422 253.82908685826763 142.00000000000009
    vertex 142.54831965323424 253.82908685826763 142.0
  endloop
endfacet
facet normal -1.3096323621833198e-32 -1.0 1.387778780781446e-17
  outer loop
    vertex 72.54831965323422 253.82908685826763 142.00000000000009
    vertex 142.54831965323424 253.82908685826763 144.5
    vertex 72.54831965323422 253.82908685826763 144.50000000000009
  endloop
endfacet
facet normal 0.0 -1.0 0.0
  outer loop
    vertex 79.0483196532345 256.3290868582676 137.00000000000009
    vertex 75.04831965323423 256.3290868582676 142.00000000000006
    vertex 75.04831965323451 256.3290868582676 137.00000000000009
  endloop
endfacet
facet normal 0.0 -1.0 0.0
  outer loop
    vertex 75.04831965323423 256.3290868582676 142.00000000000006
    vertex 79.0483196532345 256.3290868582676 137.00000000000009
    vertex 79.04831965323417 256.3290868582676 142.00000000000006
  endloop
endfacet
facet normal -1.0 2.4651903288156613e-32 8.326672684688672e-16
  outer loop
    vertex 72.54831965323422 253.82908685826763 142.00000000000009
    vertex 72.54831965323422 323.82908685826766 144.5
    vertex 72.54831965323422 323.82908685826766 142.0
  endloop
endfacet
facet normal -1.0 2.4651903288156613e-32 8.326672684688672e-16
  outer loop
    vertex 72.54831965323422 323.82908685826766 144.5
    vertex 72.54831965323422 253.82908685826763 142.00000000000009
    vertex 72.54831965323422 253.82908685826763 144.50000000000009
  endloop
endfacet
facet normal -3.6256711918472953e-16 -6.042785319745493e-16 -1.0
  outer loop
    vertex 142.54831965323424 253.82908685826763 142.0
    vertex 140.04831965323436 256.3290868582676 142.00000000000014
    vertex 142.54831965323424 323.82908685826766 142.0
  endloop
endfacet
facet normal -3.6256711918472953e-16 -6.042785319745493e-16 -1.0
  outer loop
    vertex 140.04831965323436 256.3290868582676 142.00000000000014
    vertex 142.54831965323424 253.82908685826763 142.0
    vertex 72.54831965323422 253.82908685826763 142.00000000000009
  endloop
endfacet
facet normal -3.6256711918472953e-16 -6.042785319745493e-16 -1.0
  outer loop
    vertex 140.04831965323436 256.3290868582676 142.00000000000014
    vertex 72.54831965323422 253.82908685826763 142.00000000000009
    vertex 136.0483196532343 256.3290868582676 142.00000000000014
  endloop
endfacet
facet normal -3.6256711918472953e-16 -6.042785319745493e-16 -1.0
  outer loop
    vertex 136.0483196532343 256.3290868582676 142.00000000000014
    vertex 72.54831965323422 253.82908685826763 142.00000000000009
    vertex 136.0483196532343 257.82908685826766 142.00000000000014
  endloop
endfacet
facet normal -3.6256711918472953e-16 -6.042785319745493e-16 -1.0
  outer loop
    vertex 136.0483196532343 257.82908685826766 142.00000000000014
    vertex 72.54831965323422 253.82908685826763 142.00000000000009
    vertex 79.04831965323417 256.3290868582676 142.00000000000006
  endloop
endfacet
facet normal -3.6256711918472953e-16 -6.042785319745493e-16 -1.0
  outer loop
    vertex 79.04831965323417 256.3290868582676 142.00000000000006
    vertex 72.54831965323422 253.82908685826763 142.00000000000009
    vertex 75.04831965323423 256.3290868582676 142.00000000000006
  endloop
endfacet
facet normal -3.6256711918472953e-16 -6.042785319745493e-16 -1.0
  outer loop
    vertex 75.04831965323423 256.3290868582676 142.00000000000006
    vertex 72.54831965323422 253.82908685826763 142.00000000000009
    vertex 75.04831965323423 260.3290868582676 142.00000000000006
  endloop
endfacet
facet normal -3.6256711918472953e-16 -6.042785319745493e-16 -1.0
  outer loop
    vertex 75.04831965323423 260.3290868582676 142.00000000000006
    vertex 72.54831965323422 253.82908685826763 142.00000000000009
    vertex 75.04831965323423 317.32908685826766 142.00000000000006
  endloop
endfacet
facet normal -3.6256711918472953e-16 -6.042785319745493e-16 -1.0
  outer loop
    vertex 75.04831965323423 317.32908685826766 142.00000000000006
    vertex 72.54831965323422 253.82908685826763 142.00000000000009
    vertex 75.04831965323423 321.32908685826766 142.00000000000006
  endloop
endfacet
facet normal -3.6256711918472953e-16 -6.042785319745493e-16 -1.0
  outer loop
    vertex 142.54831965323424 323.82908685826766 142.0
    vertex 140.04831965323424 321.32908685826766 142.0
    vertex 72.54831965323422 323.82908685826766 142.0
  endloop
endfacet
facet normal -3.6256711918472953e-16 -6.042785319745493e-16 -1.0
  outer loop
    vertex 140.04831965323424 321.32908685826766 142.0
    vertex 142.54831965323424 323.82908685826766 142.0
    vertex 140.04831965323427 317.32908685826766 142.0
  endloop
endfacet
facet normal -3.6256711918472953e-16 -6.042785319745493e-16 -1.0
  outer loop
    vertex 140.04831965323427 317.32908685826766 142.0
    vertex 142.54831965323424 323.82908685826766 142.0
    vertex 140.04831965323436 260.3290868582676 142.0000000000001
  endloop
endfacet
facet normal -3.6256711918472953e-16 -6.042785319745493e-16 -1.0
  outer loop
    vertex 140.04831965323436 260.3290868582676 142.0000000000001
    vertex 142.54831965323424 323.82908685826766 142.0
    vertex 140.04831965323436 256.3290868582676 142.00000000000014
  endloop
endfacet
facet normal -3.6256711918472953e-16 -6.042785319745493e-16 -1.0
  outer loop
    vertex 72.54831965323422 323.82908685826766 142.0
    vertex 140.04831965323424 321.32908685826766 142.0
    vertex 136.0483196532341 321.32908685826766 142.00000000000003
  endloop
endfacet
facet normal -3.6256711918472953e-16 -6.042785319745493e-16 -1.0
  outer loop
    vertex 72.54831965323422 323.82908685826766 142.0
    vertex 136.0483196532341 321.32908685826766 142.00000000000003
    vertex 136.04831965323396 319.8290868582687 142.00000000000884
  endloop
endfacet
facet normal -3.6256711918472953e-16 -6.042785319745493e-16 -1.0
  outer loop
    vertex 72.54831965323422 323.82908685826766 142.0
    vertex 136.04831965323396 319.8290868582687 142.00000000000884
    vertex 79.04831965323417 321.32908685826766 142.00000000000006
  endloop
endfacet
facet normal -3.6256711918472953e-16 -6.042785319745493e-16 -1.0
  outer loop
    vertex 79.04831965323417 321.32908685826766 142.00000000000006
    vertex 136.04831965323396 319.8290868582687 142.00000000000884
    vertex 79.04831965323417 319.8290868582676 142.0000000000002
  endloop
endfacet
facet normal -3.6256711918472953e-16 -6.042785319745493e-16 -1.0
  outer loop
    vertex 72.54831965323422 323.82908685826766 142.0
    vertex 79.04831965323417 321.32908685826766 142.00000000000006
    vertex 75.04831965323423 321.32908685826766 142.00000000000006
  endloop
endfacet
facet normal -3.6256711918472953e-16 -6.042785319745493e-16 -1.0
  outer loop
    vertex 72.54831965323422 323.82908685826766 142.0
    vertex 75.04831965323423 321.32908685826766 142.00000000000006
    vertex 72.54831965323422 253.82908685826763 142.00000000000009
  endloop
endfacet
facet normal -3.6256711918472953e-16 -6.042785319745493e-16 -1.0
  outer loop
    vertex 75.04831965323423 260.3290868582676 142.00000000000006
    vertex 76.5483196532343 317.3290868582676 142.0000000000002
    vertex 76.5483196532343 260.3290868582676 142.00000000000017
  endloop
endfacet
facet normal -3.6256711918472953e-16 -6.042785319745493e-16 -1.0
  outer loop
    vertex 76.5483196532343 317.3290868582676 142.0000000000002
    vertex 75.04831965323423 260.3290868582676 142.00000000000006
    vertex 75.04831965323423 317.32908685826766 142.00000000000006
  endloop
endfacet
facet normal -3.6256711918472953e-16 -6.042785319745493e-16 -1.0
  outer loop
    vertex 79.04831965323417 257.82908685826766 142.00000000000017
    vertex 136.0483196532343 257.82908685826766 142.00000000000014
    vertex 79.04831965323417 256.3290868582676 142.00000000000006
  endloop
endfacet
facet normal -3.6256711918472953e-16 -6.042785319745493e-16 -1.0
  outer loop
    vertex 138.5483196532344 260.3290868582676 142.0000000000001
    vertex 140.04831965323427 317.32908685826766 142.0
    vertex 140.04831965323436 260.3290868582676 142.0000000000001
  endloop
endfacet
facet normal -3.6256711918472953e-16 -6.042785319745493e-16 -1.0
  outer loop
    vertex 140.04831965323427 317.32908685826766 142.0
    vertex 138.5483196532344 260.3290868582676 142.0000000000001
    vertex 138.54831965323416 317.3290868582676 142.0000000000001
  endloop
endfacet
facet normal 1.3096323621833198e-32 1.0 -1.387778780781446e-17
  outer loop
    vertex 72.54831965323422 323.82908685826766 144.5
    vertex 142.54831965323424 323.82908685826766 142.0
    vertex 72.54831965323422 323.82908685826766 142.0
  endloop
endfacet
facet normal 1.3096323621833198e-32 1.0 -1.387778780781446e-17
  outer loop
    vertex 142.54831965323424 323.82908685826766 142.0
    vertex 72.54831965323422 323.82908685826766 144.5
    vertex 142.54831965323424 323.82908685826766 144.5
  endloop
endfacet
facet normal 8.326672684688672e-16 1.387778780781446e-17 1.0
  outer loop
    vertex 142.54831965323424 323.82908685826766 144.5
    vertex 130.54831965323424 309.32908685826766 144.5
    vertex 142.54831965323424 253.82908685826763 144.5
  endloop
endfacet
facet normal 8.326672684688672e-16 1.387778780781446e-17 1.0
  outer loop
    vertex 130.54831965323424 309.32908685826766 144.5
    vertex 142.54831965323424 323.82908685826766 144.5
    vertex 72.54831965323422 323.82908685826766 144.5
  endloop
endfacet
facet normal 8.326672684688672e-16 1.387778780781446e-17 1.0
  outer loop
    vertex 142.54831965323424 253.82908685826763 144.5
    vertex 130.54831965323424 309.32908685826766 144.5
    vertex 135.54831965323427 271.8290868582676 144.50000000000003
  endloop
endfacet
facet normal 8.326672684688672e-16 1.387778780781446e-17 1.0
  outer loop
    vertex 130.54831965323424 309.32908685826766 144.5
    vertex 72.54831965323422 323.82908685826766 144.5
    vertex 116.54831965323426 309.32908685826766 144.50000000000003
  endloop
endfacet
facet normal 8.326672684688672e-16 1.387778780781446e-17 1.0
  outer loop
    vertex 116.54831965323426 309.32908685826766 144.50000000000003
    vertex 72.54831965323422 323.82908685826766 144.5
    vertex 90.54831965323423 316.8290868582676 144.50000000000006
  endloop
endfacet
facet normal 8.326672684688672e-16 1.387778780781446e-17 1.0
  outer loop
    vertex 116.54831965323426 309.32908685826766 144.50000000000003
    vertex 90.54831965323423 316.8290868582676 144.50000000000006
    vertex 116.54831965323426 288.32908685826766 144.50000000000003
  endloop
endfacet
facet normal 8.326672684688672e-16 1.387778780781446e-17 1.0
  outer loop
    vertex 116.54831965323426 288.32908685826766 144.50000000000003
    vertex 90.54831965323423 316.8290868582676 144.50000000000006
    vertex 109.5483196532342 271.8290868582676 144.50000000000003
  endloop
endfacet
facet normal 8.326672684688672e-16 1.387778780781446e-17 1.0
  outer loop
    vertex 109.5483196532342 271.8290868582676 144.50000000000003
    vertex 90.54831965323423 316.8290868582676 144.50000000000006
    vertex 109.5483196532342 260.8290868582676 144.50000000000003
  endloop
endfacet
facet normal 8.326672684688672e-16 1.387778780781446e-17 1.0
  outer loop
    vertex 90.54831965323423 316.8290868582676 144.50000000000006
    vertex 72.54831965323422 323.82908685826766 144.5
    vertex 79.54831965323429 316.82908685826766 144.49999999999997
  endloop
endfacet
facet normal 8.326672684688672e-16 1.387778780781446e-17 1.0
  outer loop
    vertex 79.54831965323429 316.82908685826766 144.49999999999997
    vertex 72.54831965323422 323.82908685826766 144.5
    vertex 79.54831965323429 305.82908685826766 144.49999999999997
  endloop
endfacet
facet normal 8.326672684688672e-16 1.387778780781446e-17 1.0
  outer loop
    vertex 79.54831965323429 305.82908685826766 144.49999999999997
    vertex 72.54831965323422 323.82908685826766 144.5
    vertex 79.54831965323429 301.82908685826766 144.49999999999997
  endloop
endfacet
facet normal 8.326672684688672e-16 1.387778780781446e-17 1.0
  outer loop
    vertex 79.54831965323429 301.82908685826766 144.49999999999997
    vertex 72.54831965323422 323.82908685826766 144.5
    vertex 79.54831965323429 290.8290868582676 144.50000000000009
  endloop
endfacet
facet normal 8.326672684688672e-16 1.387778780781446e-17 1.0
  outer loop
    vertex 79.54831965323429 290.8290868582676 144.50000000000009
    vertex 72.54831965323422 323.82908685826766 144.5
    vertex 79.54831965323429 286.8290868582676 144.50000000000009
  endloop
endfacet
facet normal 8.326672684688672e-16 1.387778780781446e-17 1.0
  outer loop
    vertex 79.54831965323429 286.8290868582676 144.50000000000009
    vertex 72.54831965323422 323.82908685826766 144.5
    vertex 79.54831965323429 275.8290868582676 144.50000000000009
  endloop
endfacet
facet normal 8.326672684688672e-16 1.387778780781446e-17 1.0
  outer loop
    vertex 79.54831965323429 275.8290868582676 144.50000000000009
    vertex 72.54831965323422 323.82908685826766 144.5
    vertex 79.54831965323429 271.8290868582676 144.50000000000009
  endloop
endfacet
facet normal 8.326672684688672e-16 1.387778780781446e-17 1.0
  outer loop
    vertex 79.54831965323429 271.8290868582676 144.50000000000009
    vertex 72.54831965323422 323.82908685826766 144.5
    vertex 79.54831965323429 260.8290868582676 144.50000000000009
  endloop
endfacet
facet normal 8.326672684688672e-16 1.387778780781446e-17 1.0
  outer loop
    vertex 142.54831965323424 253.82908685826763 144.5
    vertex 135.54831965323427 260.8290868582676 144.50000000000003
    vertex 72.54831965323422 253.82908685826763 144.50000000000009
  endloop
endfacet
facet normal 8.326672684688672e-16 1.387778780781446e-17 1.0
  outer loop
    vertex 135.54831965323427 260.8290868582676 144.50000000000003
    vertex 142.54831965323424 253.82908685826763 144.5
    vertex 135.54831965323427 271.8290868582676 144.50000000000003
  endloop
endfacet
facet normal 8.326672684688672e-16 1.387778780781446e-17 1.0
  outer loop
    vertex 72.54831965323422 253.82908685826763 144.50000000000009
    vertex 135.54831965323427 260.8290868582676 144.50000000000003
    vertex 124.54831965323424 260.8290868582676 144.50000000000003
  endloop
endfacet
facet normal 8.326672684688672e-16 1.387778780781446e-17 1.0
  outer loop
    vertex 72.54831965323422 253.82908685826763 144.50000000000009
    vertex 124.54831965323424 260.8290868582676 144.50000000000003
    vertex 120.54831965323424 260.8290868582676 144.50000000000003
  endloop
endfacet
facet normal 8.326672684688672e-16 1.387778780781446e-17 1.0
  outer loop
    vertex 120.54831965323424 260.8290868582676 144.50000000000003
    vertex 124.54831965323424 260.8290868582676 144.50000000000003
    vertex 120.54831965323424 271.8290868582676 144.50000000000003
  endloop
endfacet
facet normal 8.326672684688672e-16 1.387778780781446e-17 1.0
  outer loop
    vertex 72.54831965323422 253.82908685826763 144.50000000000009
    vertex 120.54831965323424 260.8290868582676 144.50000000000003
    vertex 109.5483196532342 260.8290868582676 144.50000000000003
  endloop
endfacet
facet normal 8.326672684688672e-16 1.387778780781446e-17 1.0
  outer loop
    vertex 72.54831965323422 253.82908685826763 144.50000000000009
    vertex 109.5483196532342 260.8290868582676 144.50000000000003
    vertex 90.54831965323423 260.8290868582676 144.50000000000006
  endloop
endfacet
facet normal 8.326672684688672e-16 1.387778780781446e-17 1.0
  outer loop
    vertex 90.54831965323423 260.8290868582676 144.50000000000006
    vertex 109.5483196532342 260.8290868582676 144.50000000000003
    vertex 90.54831965323423 316.8290868582676 144.50000000000006
  endloop
endfacet
facet normal 8.326672684688672e-16 1.387778780781446e-17 1.0
  outer loop
    vertex 90.54831965323423 260.8290868582676 144.50000000000006
    vertex 90.54831965323423 316.8290868582676 144.50000000000006
    vertex 90.54831965323423 305.82908685826766 144.50000000000006
  endloop
endfacet
facet normal 8.326672684688672e-16 1.387778780781446e-17 1.0
  outer loop
    vertex 90.54831965323423 260.8290868582676 144.50000000000006
    vertex 90.54831965323423 305.82908685826766 144.50000000000006
    vertex 90.54831965323423 301.82908685826766 144.50000000000009
  endloop
endfacet
facet normal 8.326672684688672e-16 1.387778780781446e-17 1.0
  outer loop
    vertex 90.54831965323423 260.8290868582676 144.50000000000006
    vertex 90.54831965323423 301.82908685826766 144.50000000000009
    vertex 90.54831965323423 290.8290868582676 144.50000000000009
  endloop
endfacet
facet normal 8.326672684688672e-16 1.387778780781446e-17 1.0
  outer loop
    vertex 90.54831965323423 260.8290868582676 144.50000000000006
    vertex 90.54831965323423 290.8290868582676 144.50000000000009
    vertex 90.54831965323423 286.8290868582676 144.50000000000009
  endloop
endfacet
facet normal 8.326672684688672e-16 1.387778780781446e-17 1.0
  outer loop
    vertex 90.54831965323423 260.8290868582676 144.50000000000006
    vertex 90.54831965323423 286.8290868582676 144.50000000000009
    vertex 90.54831965323423 275.8290868582676 144.50000000000006
  endloop
endfacet
facet normal 8.326672684688672e-16 1.387778780781446e-17 1.0
  outer loop
    vertex 90.54831965323423 260.8290868582676 144.50000000000006
    vertex 90.54831965323423 275.8290868582676 144.50000000000006
    vertex 90.54831965323423 271.8290868582676 144.50000000000006
  endloop
endfacet
facet normal 8.326672684688672e-16 1.387778780781446e-17 1.0
  outer loop
    vertex 72.54831965323422 253.82908685826763 144.50000000000009
    vertex 90.54831965323423 260.8290868582676 144.50000000000006
    vertex 79.54831965323429 260.8290868582676 144.50000000000009
  endloop
endfacet
facet normal 8.326672684688672e-16 1.387778780781446e-17 1.0
  outer loop
    vertex 72.54831965323422 253.82908685826763 144.50000000000009
    vertex 79.54831965323429 260.8290868582676 144.50000000000009
    vertex 72.54831965323422 323.82908685826766 144.5
  endloop
endfacet
facet normal 8.326672684688672e-16 1.387778780781446e-17 1.0
  outer loop
    vertex 79.54831965323429 275.8290868582676 144.50000000000009
    vertex 90.54831965323423 271.8290868582676 144.50000000000006
    vertex 90.54831965323423 275.8290868582676 144.50000000000006
  endloop
endfacet
facet normal 8.326672684688672e-16 1.387778780781446e-17 1.0
  outer loop
    vertex 90.54831965323423 271.8290868582676 144.50000000000006
    vertex 79.54831965323429 275.8290868582676 144.50000000000009
    vertex 79.54831965323429 271.8290868582676 144.50000000000009
  endloop
endfacet
facet normal 8.326672684688672e-16 1.387778780781446e-17 1.0
  outer loop
    vertex 79.54831965323429 290.8290868582676 144.50000000000009
    vertex 90.54831965323423 286.8290868582676 144.50000000000009
    vertex 90.54831965323423 290.8290868582676 144.50000000000009
  endloop
endfacet
facet normal 8.326672684688672e-16 1.387778780781446e-17 1.0
  outer loop
    vertex 90.54831965323423 286.8290868582676 144.50000000000009
    vertex 79.54831965323429 290.8290868582676 144.50000000000009
    vertex 79.54831965323429 286.8290868582676 144.50000000000009
  endloop
endfacet
facet normal 8.326672684688672e-16 1.387778780781446e-17 1.0
  outer loop
    vertex 79.54831965323429 305.82908685826766 144.49999999999997
    vertex 90.54831965323423 301.82908685826766 144.50000000000009
    vertex 90.54831965323423 305.82908685826766 144.50000000000006
  endloop
endfacet
facet normal 8.326672684688672e-16 1.387778780781446e-17 1.0
  outer loop
    vertex 90.54831965323423 301.82908685826766 144.50000000000009
    vertex 79.54831965323429 305.82908685826766 144.49999999999997
    vertex 79.54831965323429 301.82908685826766 144.49999999999997
  endloop
endfacet
facet normal 8.326672684688672e-16 1.387778780781446e-17 1.0
  outer loop
    vertex 135.54831965323427 271.8290868582676 144.50000000000003
    vertex 130.54831965323424 288.32908685826766 144.5
    vertex 124.54831965323424 271.8290868582676 144.50000000000003
  endloop
endfacet
facet normal 8.326672684688672e-16 1.387778780781446e-17 1.0
  outer loop
    vertex 130.54831965323424 288.32908685826766 144.5
    vertex 135.54831965323427 271.8290868582676 144.50000000000003
    vertex 130.54831965323424 309.32908685826766 144.5
  endloop
endfacet
facet normal 8.326672684688672e-16 1.387778780781446e-17 1.0
  outer loop
    vertex 124.54831965323424 271.8290868582676 144.50000000000003
    vertex 130.54831965323424 288.32908685826766 144.5
    vertex 116.54831965323426 288.32908685826766 144.50000000000003
  endloop
endfacet
facet normal 8.326672684688672e-16 1.387778780781446e-17 1.0
  outer loop
    vertex 124.54831965323424 271.8290868582676 144.50000000000003
    vertex 116.54831965323426 288.32908685826766 144.50000000000003
    vertex 124.54831965323424 260.8290868582676 144.50000000000003
  endloop
endfacet
facet normal 8.326672684688672e-16 1.387778780781446e-17 1.0
  outer loop
    vertex 124.54831965323424 260.8290868582676 144.50000000000003
    vertex 116.54831965323426 288.32908685826766 144.50000000000003
    vertex 120.54831965323424 271.8290868582676 144.50000000000003
  endloop
endfacet
facet normal 8.326672684688672e-16 1.387778780781446e-17 1.0
  outer loop
    vertex 120.54831965323424 271.8290868582676 144.50000000000003
    vertex 116.54831965323426 288.32908685826766 144.50000000000003
    vertex 109.5483196532342 271.8290868582676 144.50000000000003
  endloop
endfacet
facet normal -1.0 2.8199664825478943e-15 4.834228255796397e-15
  outer loop
    vertex 75.04831965323459 321.3290868582676 136.99999999999994
    vertex 75.04831965323423 317.32908685826766 142.00000000000006
    vertex 75.04831965323423 321.32908685826766 142.00000000000006
  endloop
endfacet
facet normal -1.0 2.8199664825478943e-15 4.834228255796397e-15
  outer loop
    vertex 75.04831965323423 317.32908685826766 142.00000000000006
    vertex 75.04831965323459 321.3290868582676 136.99999999999994
    vertex 75.04831965323459 317.3290868582676 136.99999999999994
  endloop
endfacet
facet normal 1.3096323621833198e-32 1.0 -1.387778780781446e-17
  outer loop
    vertex 116.54831965323426 288.32908685826766 144.50000000000003
    vertex 130.5483196532345 288.32908685826766 142.00000000000014
    vertex 116.54831965323453 288.32908685826766 142.00000000000014
  endloop
endfacet
facet normal 1.3096323621833198e-32 1.0 -1.387778780781446e-17
  outer loop
    vertex 130.5483196532345 288.32908685826766 142.00000000000014
    vertex 116.54831965323426 288.32908685826766 144.50000000000003
    vertex 130.54831965323424 288.32908685826766 144.5
  endloop
endfacet
facet normal -1.0 2.4651903288156613e-32 8.326672684688672e-16
  outer loop
    vertex 130.5483196532345 309.32908685826754 142.00000000000014
    vertex 130.54831965323424 288.32908685826766 144.5
    vertex 130.54831965323424 309.32908685826766 144.5
  endloop
endfacet
facet normal -1.0 2.4651903288156613e-32 8.326672684688672e-16
  outer loop
    vertex 130.54831965323424 288.32908685826766 144.5
    vertex 130.5483196532345 309.32908685826754 142.00000000000014
    vertex 130.5483196532345 288.32908685826766 142.00000000000014
  endloop
endfacet
facet normal 1.0 -2.4651903288156613e-32 -8.326672684688672e-16
  outer loop
    vertex 116.54831965323426 288.32908685826766 144.50000000000003
    vertex 116.54831965323453 309.32908685826754 142.00000000000014
    vertex 116.54831965323426 309.32908685826766 144.50000000000003
  endloop
endfacet
facet normal 1.0 -2.4651903288156613e-32 -8.326672684688672e-16
  outer loop
    vertex 116.54831965323453 309.32908685826754 142.00000000000014
    vertex 116.54831965323426 288.32908685826766 144.50000000000003
    vertex 116.54831965323453 288.32908685826766 142.00000000000014
  endloop
endfacet
facet normal -1.3096323621833198e-32 -1.0 1.387778780781446e-17
  outer loop
    vertex 130.54831965323424 309.32908685826766 144.5
    vertex 116.54831965323453 309.32908685826754 142.00000000000014
    vertex 130.5483196532345 309.32908685826754 142.00000000000014
  endloop
endfacet
facet normal -1.3096323621833198e-32 -1.0 1.387778780781446e-17
  outer loop
    vertex 116.54831965323453 309.32908685826754 142.00000000000014
    vertex 130.54831965323424 309.32908685826766 144.5
    vertex 116.54831965323426 309.32908685826766 144.50000000000003
  endloop
endfacet
facet normal -1.0 2.4651903288156613e-32 8.326672684688672e-16
  outer loop
    vertex 90.54831965323423 275.8290868582676 142.00000000000017
    vertex 90.54831965323423 286.8290868582676 144.50000000000009
    vertex 90.54831965323423 286.8290868582676 142.0000000000002
  endloop
endfacet
facet normal -1.0 2.4651903288156613e-32 8.326672684688672e-16
  outer loop
    vertex 90.54831965323423 286.8290868582676 144.50000000000009
    vertex 90.54831965323423 275.8290868582676 142.00000000000017
    vertex 90.54831965323423 275.8290868582676 144.50000000000006
  endloop
endfacet
facet normal 1.3096323621833198e-32 1.0 -1.387778780781446e-17
  outer loop
    vertex 79.54831965323429 275.8290868582676 144.50000000000009
    vertex 90.54831965323423 275.8290868582676 142.00000000000017
    vertex 79.54831965323429 275.8290868582676 142.0000000000002
  endloop
endfacet
facet normal 1.3096323621833198e-32 1.0 -1.387778780781446e-17
  outer loop
    vertex 90.54831965323423 275.8290868582676 142.00000000000017
    vertex 79.54831965323429 275.8290868582676 144.50000000000009
    vertex 90.54831965323423 275.8290868582676 144.50000000000006
  endloop
endfacet
facet normal 1.0 -2.4651903288156613e-32 -8.326672684688672e-16
  outer loop
    vertex 79.54831965323429 275.8290868582676 144.50000000000009
    vertex 79.54831965323429 286.8290868582676 142.00000000000017
    vertex 79.54831965323429 286.8290868582676 144.50000000000009
  endloop
endfacet
facet normal 1.0 -2.4651903288156613e-32 -8.326672684688672e-16
  outer loop
    vertex 79.54831965323429 286.8290868582676 142.00000000000017
    vertex 79.54831965323429 275.8290868582676 144.50000000000009
    vertex 79.54831965323429 275.8290868582676 142.0000000000002
  endloop
endfacet
facet normal -1.3096323621833198e-32 -1.0 1.387778780781446e-17
  outer loop
    vertex 90.54831965323423 286.8290868582676 142.0000000000002
    vertex 79.54831965323429 286.8290868582676 144.50000000000009
    vertex 79.54831965323429 286.8290868582676 142.00000000000017
  endloop
endfacet
facet normal -1.3096323621833198e-32 -1.0 1.387778780781446e-17
  outer loop
    vertex 79.54831965323429 286.8290868582676 144.50000000000009
    vertex 90.54831965323423 286.8290868582676 142.0000000000002
    vertex 90.54831965323423 286.8290868582676 144.50000000000009
  endloop
endfacet
facet normal -1.0 4.744621372224997e-29 -2.072036297435081e-14
  outer loop
    vertex 138.54831965323444 317.32908685826766 136.99999999999972
    vertex 138.54831965323416 319.8290868582676 142.0000000000001
    vertex 138.54831965323444 319.8290868582676 136.99999999999972
  endloop
endfacet
facet normal -1.0 4.744621372224997e-29 -2.072036297435081e-14
  outer loop
    vertex 138.54831965323416 319.8290868582676 142.0000000000001
    vertex 138.54831965323444 317.32908685826766 136.99999999999972
    vertex 138.54831965323416 317.3290868582676 142.0000000000001
  endloop
endfacet
facet normal -2.1206147948748883e-13 -1.0 5.957104355125378e-14
  outer loop
    vertex 138.54831965323444 319.8290868582676 136.99999999999972
    vertex 136.04831965323396 319.8290868582687 142.00000000000884
    vertex 136.04831965323433 319.8290868582676 136.99999999999972
  endloop
endfacet
facet normal -2.1206147948748883e-13 -1.0 5.957104355125378e-14
  outer loop
    vertex 136.04831965323396 319.8290868582687 142.00000000000884
    vertex 138.54831965323444 319.8290868582676 136.99999999999972
    vertex 138.54831965323416 319.8290868582676 142.0000000000001
  endloop
endfacet
facet normal 1.0 -9.854414309754455e-32 1.0360181487176015e-14
  outer loop
    vertex 76.5483196532343 257.82908685826766 142.00000000000017
    vertex 76.54831965323459 260.3290868582676 137.00000000000009
    vertex 76.5483196532343 260.3290868582676 142.00000000000017
  endloop
endfacet
facet normal 1.0 -9.854414309754455e-32 1.0360181487176015e-14
  outer loop
    vertex 76.54831965323459 260.3290868582676 137.00000000000009
    vertex 76.5483196532343 257.82908685826766 142.00000000000017
    vertex 76.54831965323459 257.82908685826766 137.00000000000009
  endloop
endfacet
facet normal 1.3096323621833198e-32 1.0 -1.387778780781446e-17
  outer loop
    vertex 109.5483196532342 260.8290868582676 142.00000000000014
    vertex 120.54831965323424 260.8290868582676 144.50000000000003
    vertex 120.54831965323424 260.8290868582676 142.00000000000014
  endloop
endfacet
facet normal 1.3096323621833198e-32 1.0 -1.387778780781446e-17
  outer loop
    vertex 120.54831965323424 260.8290868582676 144.50000000000003
    vertex 109.5483196532342 260.8290868582676 142.00000000000014
    vertex 109.5483196532342 260.8290868582676 144.50000000000003
  endloop
endfacet
facet normal -1.3096323621833198e-32 -1.0 1.387778780781446e-17
  outer loop
    vertex 120.54831965323424 271.8290868582676 144.50000000000003
    vertex 109.5483196532342 271.8290868582676 142.00000000000014
    vertex 120.54831965323424 271.8290868582676 142.00000000000014
  endloop
endfacet
facet normal -1.3096323621833198e-32 -1.0 1.387778780781446e-17
  outer loop
    vertex 109.5483196532342 271.8290868582676 142.00000000000014
    vertex 120.54831965323424 271.8290868582676 144.50000000000003
    vertex 109.5483196532342 271.8290868582676 144.50000000000003
  endloop
endfacet
facet normal 1.0 -2.4651903288156613e-32 -8.326672684688672e-16
  outer loop
    vertex 109.5483196532342 260.8290868582676 144.50000000000003
    vertex 109.5483196532342 271.8290868582676 142.00000000000014
    vertex 109.5483196532342 271.8290868582676 144.50000000000003
  endloop
endfacet
facet normal 1.0 -2.4651903288156613e-32 -8.326672684688672e-16
  outer loop
    vertex 109.5483196532342 271.8290868582676 142.00000000000014
    vertex 109.5483196532342 260.8290868582676 144.50000000000003
    vertex 109.5483196532342 260.8290868582676 142.00000000000014
  endloop
endfacet
facet normal -1.0 2.4651903288156613e-32 8.326672684688672e-16
  outer loop
    vertex 120.54831965323424 260.8290868582676 142.00000000000014
    vertex 120.54831965323424 271.8290868582676 144.50000000000003
    vertex 120.54831965323424 271.8290868582676 142.00000000000014
  endloop
endfacet
facet normal -1.0 2.4651903288156613e-32 8.326672684688672e-16
  outer loop
    vertex 120.54831965323424 271.8290868582676 144.50000000000003
    vertex 120.54831965323424 260.8290868582676 142.00000000000014
    vertex 120.54831965323424 260.8290868582676 144.50000000000003
  endloop
endfacet
facet normal -1.0 2.4651903288156613e-32 8.326672684688672e-16
  outer loop
    vertex 90.54831965323423 301.82908685826754 142.0000000000002
    vertex 90.54831965323423 290.8290868582676 144.50000000000009
    vertex 90.54831965323423 301.82908685826766 144.50000000000009
  endloop
endfacet
facet normal -1.0 2.4651903288156613e-32 8.326672684688672e-16
  outer loop
    vertex 90.54831965323423 290.8290868582676 144.50000000000009
    vertex 90.54831965323423 301.82908685826754 142.0000000000002
    vertex 90.54831965323423 290.8290868582676 142.0000000000002
  endloop
endfacet
facet normal 1.0 -2.4651903288156613e-32 -8.326672684688672e-16
  outer loop
    vertex 79.54831965323429 290.8290868582676 144.50000000000009
    vertex 79.54831965323429 301.82908685826754 142.0000000000001
    vertex 79.54831965323429 301.82908685826766 144.49999999999997
  endloop
endfacet
facet normal 1.0 -2.4651903288156613e-32 -8.326672684688672e-16
  outer loop
    vertex 79.54831965323429 301.82908685826754 142.0000000000001
    vertex 79.54831965323429 290.8290868582676 144.50000000000009
    vertex 79.54831965323429 290.8290868582676 142.00000000000017
  endloop
endfacet
facet normal -1.3096323621833198e-32 -1.0 1.387778780781446e-17
  outer loop
    vertex 90.54831965323423 301.82908685826754 142.0000000000002
    vertex 79.54831965323429 301.82908685826766 144.49999999999997
    vertex 79.54831965323429 301.82908685826754 142.0000000000001
  endloop
endfacet
facet normal -1.3096323621833198e-32 -1.0 1.387778780781446e-17
  outer loop
    vertex 79.54831965323429 301.82908685826766 144.49999999999997
    vertex 90.54831965323423 301.82908685826754 142.0000000000002
    vertex 90.54831965323423 301.82908685826766 144.50000000000009
  endloop
endfacet
facet normal 1.3096323621833198e-32 1.0 -1.387778780781446e-17
  outer loop
    vertex 79.54831965323429 290.8290868582676 144.50000000000009
    vertex 90.54831965323423 290.8290868582676 142.0000000000002
    vertex 79.54831965323429 290.8290868582676 142.00000000000017
  endloop
endfacet
facet normal 1.3096323621833198e-32 1.0 -1.387778780781446e-17
  outer loop
    vertex 90.54831965323423 290.8290868582676 142.0000000000002
    vertex 79.54831965323429 290.8290868582676 144.50000000000009
    vertex 90.54831965323423 290.8290868582676 144.50000000000009
  endloop
endfacet
facet normal -1.3096323621833198e-32 -1.0 1.387778780781446e-17
  outer loop
    vertex 90.54831965323423 271.8290868582676 144.50000000000006
    vertex 79.54831965323429 271.8290868582676 142.00000000000017
    vertex 90.54831965323423 271.8290868582676 142.00000000000017
  endloop
endfacet
facet normal -1.3096323621833198e-32 -1.0 1.387778780781446e-17
  outer loop
    vertex 79.54831965323429 271.8290868582676 142.00000000000017
    vertex 90.54831965323423 271.8290868582676 144.50000000000006
    vertex 79.54831965323429 271.8290868582676 144.50000000000009
  endloop
endfacet
facet normal 1.0 -2.4651903288156613e-32 -8.326672684688672e-16
  outer loop
    vertex 79.54831965323429 260.8290868582676 144.50000000000009
    vertex 79.54831965323429 271.8290868582676 142.00000000000017
    vertex 79.54831965323429 271.8290868582676 144.50000000000009
  endloop
endfacet
facet normal 1.0 -2.4651903288156613e-32 -8.326672684688672e-16
  outer loop
    vertex 79.54831965323429 271.8290868582676 142.00000000000017
    vertex 79.54831965323429 260.8290868582676 144.50000000000009
    vertex 79.54831965323429 260.8290868582676 142.00000000000017
  endloop
endfacet
facet normal 1.3096323621833198e-32 1.0 -1.387778780781446e-17
  outer loop
    vertex 79.54831965323429 260.8290868582676 144.50000000000009
    vertex 90.54831965323423 260.8290868582676 142.00000000000017
    vertex 79.54831965323429 260.8290868582676 142.00000000000017
  endloop
endfacet
facet normal 1.3096323621833198e-32 1.0 -1.387778780781446e-17
  outer loop
    vertex 90.54831965323423 260.8290868582676 142.00000000000017
    vertex 79.54831965323429 260.8290868582676 144.50000000000009
    vertex 90.54831965323423 260.8290868582676 144.50000000000006
  endloop
endfacet
facet normal -1.0 2.4651903288156613e-32 8.326672684688672e-16
  outer loop
    vertex 90.54831965323423 260.8290868582676 142.00000000000017
    vertex 90.54831965323423 271.8290868582676 144.50000000000006
    vertex 90.54831965323423 271.8290868582676 142.00000000000017
  endloop
endfacet
facet normal -1.0 2.4651903288156613e-32 8.326672684688672e-16
  outer loop
    vertex 90.54831965323423 271.8290868582676 144.50000000000006
    vertex 90.54831965323423 260.8290868582676 142.00000000000017
    vertex 90.54831965323423 260.8290868582676 144.50000000000006
  endloop
endfacet
facet normal 1.3096323621833198e-32 1.0 -1.387778780781446e-17
  outer loop
    vertex 79.54831965323429 305.82908685826766 144.49999999999997
    vertex 90.54831965323423 305.82908685826754 142.0000000000002
    vertex 79.54831965323429 305.82908685826754 142.0000000000001
  endloop
endfacet
facet normal 1.3096323621833198e-32 1.0 -1.387778780781446e-17
  outer loop
    vertex 90.54831965323423 305.82908685826754 142.0000000000002
    vertex 79.54831965323429 305.82908685826766 144.49999999999997
    vertex 90.54831965323423 305.82908685826766 144.50000000000006
  endloop
endfacet
facet normal 1.0 -2.4651903288156613e-32 -8.326672684688672e-16
  outer loop
    vertex 79.54831965323429 305.82908685826766 144.49999999999997
    vertex 79.54831965323429 316.82908685826754 142.0000000000001
    vertex 79.54831965323429 316.82908685826766 144.49999999999997
  endloop
endfacet
facet normal 1.0 -2.4651903288156613e-32 -8.326672684688672e-16
  outer loop
    vertex 79.54831965323429 316.82908685826754 142.0000000000001
    vertex 79.54831965323429 305.82908685826766 144.49999999999997
    vertex 79.54831965323429 305.82908685826754 142.0000000000001
  endloop
endfacet
facet normal -2.0508847145803014e-15 -1.0 1.3877787807816167e-17
  outer loop
    vertex 90.54831965323423 316.82908685826754 142.0000000000002
    vertex 79.54831965323429 316.82908685826766 144.49999999999997
    vertex 79.54831965323429 316.82908685826754 142.0000000000001
  endloop
endfacet
facet normal -2.0508847145803014e-15 -1.0 1.3877787807816167e-17
  outer loop
    vertex 79.54831965323429 316.82908685826766 144.49999999999997
    vertex 90.54831965323423 316.82908685826754 142.0000000000002
    vertex 90.54831965323423 316.8290868582676 144.50000000000006
  endloop
endfacet
facet normal -1.0 2.4651903288156613e-32 8.326672684688672e-16
  outer loop
    vertex 135.5483196532342 260.8290868582676 142.0000000000001
    vertex 135.54831965323427 271.8290868582676 144.50000000000003
    vertex 135.5483196532342 271.8290868582676 142.0000000000001
  endloop
endfacet
facet normal -1.0 2.4651903288156613e-32 8.326672684688672e-16
  outer loop
    vertex 135.54831965323427 271.8290868582676 144.50000000000003
    vertex 135.5483196532342 260.8290868582676 142.0000000000001
    vertex 135.54831965323427 260.8290868582676 144.50000000000003
  endloop
endfacet
facet normal -1.0 2.4651903288156613e-32 8.326672684688672e-16
  outer loop
    vertex 90.54831965323423 316.82908685826754 142.0000000000002
    vertex 90.54831965323423 305.82908685826766 144.50000000000006
    vertex 90.54831965323423 316.8290868582676 144.50000000000006
  endloop
endfacet
facet normal -1.0 2.4651903288156613e-32 8.326672684688672e-16
  outer loop
    vertex 90.54831965323423 305.82908685826766 144.50000000000006
    vertex 90.54831965323423 316.82908685826754 142.0000000000002
    vertex 90.54831965323423 305.82908685826754 142.0000000000002
  endloop
endfacet
facet normal 1.3096323621833198e-32 1.0 -1.387778780781446e-17
  outer loop
    vertex 124.54831965323424 260.8290868582676 144.50000000000003
    vertex 135.5483196532342 260.8290868582676 142.0000000000001
    vertex 124.54831965323424 260.8290868582676 142.00000000000014
  endloop
endfacet
facet normal 1.3096323621833198e-32 1.0 -1.387778780781446e-17
  outer loop
    vertex 135.5483196532342 260.8290868582676 142.0000000000001
    vertex 124.54831965323424 260.8290868582676 144.50000000000003
    vertex 135.54831965323427 260.8290868582676 144.50000000000003
  endloop
endfacet
facet normal 1.0 -2.4651903288156613e-32 -8.326672684688672e-16
  outer loop
    vertex 124.54831965323424 260.8290868582676 144.50000000000003
    vertex 124.54831965323424 271.8290868582676 142.00000000000014
    vertex 124.54831965323424 271.8290868582676 144.50000000000003
  endloop
endfacet
facet normal 1.0 -2.4651903288156613e-32 -8.326672684688672e-16
  outer loop
    vertex 124.54831965323424 271.8290868582676 142.00000000000014
    vertex 124.54831965323424 260.8290868582676 144.50000000000003
    vertex 124.54831965323424 260.8290868582676 142.00000000000014
  endloop
endfacet
facet normal -1.3096323621833198e-32 -1.0 1.387778780781446e-17
  outer loop
    vertex 135.54831965323427 271.8290868582676 144.50000000000003
    vertex 124.54831965323424 271.8290868582676 142.00000000000014
    vertex 135.5483196532342 271.8290868582676 142.0000000000001
  endloop
endfacet
facet normal -1.3096323621833198e-32 -1.0 1.387778780781446e-17
  outer loop
    vertex 124.54831965323424 271.8290868582676 142.00000000000014
    vertex 135.54831965323427 271.8290868582676 144.50000000000003
    vertex 124.54831965323424 271.8290868582676 144.50000000000003
  endloop
endfacet
facet normal 2.894054710833634e-29 -1.0 2.5900453717939533e-15
  outer loop
    vertex 79.04831965323417 319.8290868582676 142.0000000000002
    vertex 76.54831965323464 319.8290868582676 136.99999999999994
    vertex 79.04831965323457 319.8290868582676 136.99999999999991
  endloop
endfacet
facet normal 2.894054710833634e-29 -1.0 2.5900453717939533e-15
  outer loop
    vertex 76.54831965323464 319.8290868582676 136.99999999999994
    vertex 79.04831965323417 319.8290868582676 142.0000000000002
    vertex 76.5483196532343 319.8290868582676 142.0000000000002
  endloop
endfacet
facet normal -6.6888337565368055e-15 2.8186990818813116e-16 -1.0
  outer loop
    vertex 138.54831965323444 317.32908685826766 136.99999999999972
    vertex 140.04831965323442 321.32908685826766 136.9999999999996
    vertex 140.04831965323442 317.32908685826766 136.9999999999996
  endloop
endfacet
facet normal -6.6888337565368055e-15 2.8186990818813116e-16 -1.0
  outer loop
    vertex 140.04831965323442 321.32908685826766 136.9999999999996
    vertex 138.54831965323444 317.32908685826766 136.99999999999972
    vertex 138.54831965323444 319.8290868582676 136.99999999999972
  endloop
endfacet
facet normal -6.6888337565368055e-15 2.8186990818813116e-16 -1.0
  outer loop
    vertex 140.04831965323442 321.32908685826766 136.9999999999996
    vertex 138.54831965323444 319.8290868582676 136.99999999999972
    vertex 136.04831965323433 321.32908685826766 136.99999999999972
  endloop
endfacet
facet normal -6.6888337565368055e-15 2.8186990818813116e-16 -1.0
  outer loop
    vertex 136.04831965323433 321.32908685826766 136.99999999999972
    vertex 138.54831965323444 319.8290868582676 136.99999999999972
    vertex 136.04831965323433 319.8290868582676 136.99999999999972
  endloop
endfacet
facet normal -1.0 4.5119463720697993e-14 -2.3310408346139833e-14
  outer loop
    vertex 136.04831965323433 321.32908685826766 136.99999999999972
    vertex 136.04831965323396 319.8290868582687 142.00000000000884
    vertex 136.0483196532341 321.32908685826766 142.00000000000003
  endloop
endfacet
facet normal -1.0 4.5119463720697993e-14 -2.3310408346139833e-14
  outer loop
    vertex 136.04831965323396 319.8290868582687 142.00000000000884
    vertex 136.04831965323433 321.32908685826766 136.99999999999972
    vertex 136.04831965323433 319.8290868582676 136.99999999999972
  endloop
endfacet
facet normal 0.0 1.0 0.0
  outer loop
    vertex 136.04831965323433 321.32908685826766 136.99999999999972
    vertex 140.04831965323424 321.32908685826766 142.0
    vertex 140.04831965323442 321.32908685826766 136.9999999999996
  endloop
endfacet
facet normal 0.0 1.0 0.0
  outer loop
    vertex 140.04831965323424 321.32908685826766 142.0
    vertex 136.04831965323433 321.32908685826766 136.99999999999972
    vertex 136.0483196532341 321.32908685826766 142.00000000000003
  endloop
endfacet
facet normal 1.0 5.6399329650957886e-15 3.2228188371975977e-15
  outer loop
    vertex 140.04831965323427 317.32908685826766 142.0
    vertex 140.04831965323442 321.32908685826766 136.9999999999996
    vertex 140.04831965323424 321.32908685826766 142.0
  endloop
endfacet
facet normal 1.0 5.6399329650957886e-15 3.2228188371975977e-15
  outer loop
    vertex 140.04831965323442 321.32908685826766 136.9999999999996
    vertex 140.04831965323427 317.32908685826766 142.0
    vertex 140.04831965323442 317.32908685826766 136.9999999999996
  endloop
endfacet
facet normal 1.4438228390645896e-15 -1.4438228390645306e-15 -1.0
  outer loop
    vertex 75.04831965323459 317.3290868582676 136.99999999999994
    vertex 76.54831965323464 319.8290868582676 136.99999999999994
    vertex 76.54831965323464 317.3290868582676 136.99999999999994
  endloop
endfacet
facet normal 1.4438228390645896e-15 -1.4438228390645306e-15 -1.0
  outer loop
    vertex 76.54831965323464 319.8290868582676 136.99999999999994
    vertex 79.04831965323457 321.3290868582676 136.9999999999999
    vertex 79.04831965323457 319.8290868582676 136.99999999999991
  endloop
endfacet
facet normal 1.4438228390645896e-15 -1.4438228390645306e-15 -1.0
  outer loop
    vertex 79.04831965323457 321.3290868582676 136.9999999999999
    vertex 76.54831965323464 319.8290868582676 136.99999999999994
    vertex 75.04831965323459 321.3290868582676 136.99999999999994
  endloop
endfacet
facet normal 1.4438228390645896e-15 -1.4438228390645306e-15 -1.0
  outer loop
    vertex 75.04831965323459 321.3290868582676 136.99999999999994
    vertex 76.54831965323464 319.8290868582676 136.99999999999994
    vertex 75.04831965323459 317.3290868582676 136.99999999999994
  endloop
endfacet
facet normal 1.0 -4.0338306626712374e-29 1.813031760255772e-14
  outer loop
    vertex 76.5483196532343 319.8290868582676 142.0000000000002
    vertex 76.54831965323464 317.3290868582676 136.99999999999994
    vertex 76.54831965323464 319.8290868582676 136.99999999999994
  endloop
endfacet
facet normal 1.0 -4.0338306626712374e-29 1.813031760255772e-14
  outer loop
    vertex 76.54831965323464 317.3290868582676 136.99999999999994
    vertex 76.5483196532343 319.8290868582676 142.0000000000002
    vertex 76.5483196532343 317.3290868582676 142.0000000000002
  endloop
endfacet
facet normal 0.0 1.0 0.0
  outer loop
    vertex 75.04831965323459 321.3290868582676 136.99999999999994
    vertex 79.04831965323417 321.32908685826766 142.00000000000006
    vertex 79.04831965323457 321.3290868582676 136.9999999999999
  endloop
endfacet
facet normal 0.0 1.0 0.0
  outer loop
    vertex 79.04831965323417 321.32908685826766 142.00000000000006
    vertex 75.04831965323459 321.3290868582676 136.99999999999994
    vertex 75.04831965323423 321.32908685826766 142.00000000000006
  endloop
endfacet
facet normal -1.0 -2.8199664825478986e-15 4.834228255796402e-15
  outer loop
    vertex 75.04831965323451 256.3290868582676 137.00000000000009
    vertex 75.04831965323423 260.3290868582676 142.00000000000006
    vertex 75.04831965323451 260.3290868582676 137.00000000000009
  endloop
endfacet
facet normal -1.0 -2.8199664825478986e-15 4.834228255796402e-15
  outer loop
    vertex 75.04831965323423 260.3290868582676 142.00000000000006
    vertex 75.04831965323451 256.3290868582676 137.00000000000009
    vertex 75.04831965323423 256.3290868582676 142.00000000000006
  endloop
endfacet
facet normal -5.971991939669944e-16 4.167213390839426e-16 -1.0
  outer loop
    vertex 75.04831965323451 256.3290868582676 137.00000000000009
    vertex 79.0483196532345 257.82908685826766 137.0000000000001
    vertex 79.0483196532345 256.3290868582676 137.00000000000009
  endloop
endfacet
facet normal -5.971991939669944e-16 4.167213390839426e-16 -1.0
  outer loop
    vertex 79.0483196532345 257.82908685826766 137.0000000000001
    vertex 75.04831965323451 256.3290868582676 137.00000000000009
    vertex 76.54831965323459 257.82908685826766 137.00000000000009
  endloop
endfacet
facet normal -5.971991939669944e-16 4.167213390839426e-16 -1.0
  outer loop
    vertex 76.54831965323459 257.82908685826766 137.00000000000009
    vertex 75.04831965323451 256.3290868582676 137.00000000000009
    vertex 76.54831965323459 260.3290868582676 137.00000000000009
  endloop
endfacet
facet normal -5.971991939669944e-16 4.167213390839426e-16 -1.0
  outer loop
    vertex 76.54831965323459 260.3290868582676 137.00000000000009
    vertex 75.04831965323451 256.3290868582676 137.00000000000009
    vertex 75.04831965323451 260.3290868582676 137.00000000000009
  endloop
endfacet
facet normal -3.550771349633464e-31 1.0 -3.237556714742503e-16
  outer loop
    vertex 76.5483196532343 257.82908685826766 142.00000000000017
    vertex 79.0483196532345 257.82908685826766 137.0000000000001
    vertex 76.54831965323459 257.82908685826766 137.00000000000009
  endloop
endfacet
facet normal -3.550771349633464e-31 1.0 -3.237556714742503e-16
  outer loop
    vertex 79.0483196532345 257.82908685826766 137.0000000000001
    vertex 76.5483196532343 257.82908685826766 142.00000000000017
    vertex 79.04831965323417 257.82908685826766 142.00000000000017
  endloop
endfacet
facet normal 1.1279865930191819e-14 -1.0 6.475113429486034e-16
  outer loop
    vertex 140.04831965323427 317.32908685826766 142.0
    vertex 138.54831965323444 317.32908685826766 136.99999999999972
    vertex 140.04831965323442 317.32908685826766 136.9999999999996
  endloop
endfacet
facet normal 1.1279865930191819e-14 -1.0 6.475113429486034e-16
  outer loop
    vertex 138.54831965323444 317.32908685826766 136.99999999999972
    vertex 140.04831965323427 317.32908685826766 142.0
    vertex 138.54831965323416 317.3290868582676 142.0000000000001
  endloop
endfacet
facet normal 1.0 -6.727064729632008e-28 1.5540272230764106e-14
  outer loop
    vertex 79.04831965323417 256.3290868582676 142.00000000000006
    vertex 79.0483196532345 257.82908685826766 137.0000000000001
    vertex 79.04831965323417 257.82908685826766 142.00000000000017
  endloop
endfacet
facet normal 1.0 -6.727064729632008e-28 1.5540272230764106e-14
  outer loop
    vertex 79.0483196532345 257.82908685826766 137.0000000000001
    vertex 79.04831965323417 256.3290868582676 142.00000000000006
    vertex 79.0483196532345 256.3290868582676 137.00000000000009
  endloop
endfacet
facet normal -9.399888275159186e-16 1.0 -1.6187783573713695e-16
  outer loop
    vertex 75.04831965323423 260.3290868582676 142.00000000000006
    vertex 76.54831965323459 260.3290868582676 137.00000000000009
    vertex 75.04831965323451 260.3290868582676 137.00000000000009
  endloop
endfacet
facet normal -9.399888275159186e-16 1.0 -1.6187783573713695e-16
  outer loop
    vertex 76.54831965323459 260.3290868582676 137.00000000000009
    vertex 75.04831965323423 260.3290868582676 142.00000000000006
    vertex 76.5483196532343 260.3290868582676 142.00000000000017
  endloop
endfacet
facet normal -1.1279865930191315e-14 -1.0 4.532579400639246e-15
  outer loop
    vertex 76.54831965323464 317.3290868582676 136.99999999999994
    vertex 75.04831965323423 317.32908685826766 142.00000000000006
    vertex 75.04831965323459 317.3290868582676 136.99999999999994
  endloop
endfacet
facet normal -1.1279865930191315e-14 -1.0 4.532579400639246e-15
  outer loop
    vertex 75.04831965323423 317.32908685826766 142.00000000000006
    vertex 76.54831965323464 317.3290868582676 136.99999999999994
    vertex 76.5483196532343 317.3290868582676 142.0000000000002
  endloop
endfacet
facet normal 1.0 1.098685352815472e-27 2.33104083461457e-14
  outer loop
    vertex 79.04831965323417 319.8290868582676 142.0000000000002
    vertex 79.04831965323457 321.3290868582676 136.9999999999999
    vertex 79.04831965323417 321.32908685826766 142.00000000000006
  endloop
endfacet
facet normal 1.0 1.098685352815472e-27 2.33104083461457e-14
  outer loop
    vertex 79.04831965323457 321.3290868582676 136.9999999999999
    vertex 79.04831965323417 319.8290868582676 142.0000000000002
    vertex 79.04831965323457 319.8290868582676 136.99999999999991
  endloop
endfacet
facet normal 2.1799885355485025e-14 2.4668840923860248e-14 -1.0
  outer loop
    vertex 124.54831965323424 271.8290868582676 142.00000000000014
    vertex 130.5483196532345 288.32908685826766 142.00000000000014
    vertex 135.5483196532342 271.8290868582676 142.0000000000001
  endloop
endfacet
facet normal 2.1799885355485025e-14 2.4668840923860248e-14 -1.0
  outer loop
    vertex 130.5483196532345 288.32908685826766 142.00000000000014
    vertex 124.54831965323424 271.8290868582676 142.00000000000014
    vertex 116.54831965323453 288.32908685826766 142.00000000000014
  endloop
endfacet
facet normal 2.1799885355485025e-14 2.4668840923860248e-14 -1.0
  outer loop
    vertex 116.54831965323453 288.32908685826766 142.00000000000014
    vertex 124.54831965323424 271.8290868582676 142.00000000000014
    vertex 120.54831965323424 271.8290868582676 142.00000000000014
  endloop
endfacet
facet normal 2.1799885355485025e-14 2.4668840923860248e-14 -1.0
  outer loop
    vertex 120.54831965323424 271.8290868582676 142.00000000000014
    vertex 124.54831965323424 271.8290868582676 142.00000000000014
    vertex 120.54831965323424 260.8290868582676 142.00000000000014
  endloop
endfacet
facet normal 2.1799885355485025e-14 2.4668840923860248e-14 -1.0
  outer loop
    vertex 116.54831965323453 288.32908685826766 142.00000000000014
    vertex 120.54831965323424 271.8290868582676 142.00000000000014
    vertex 109.5483196532342 271.8290868582676 142.00000000000014
  endloop
endfacet
facet normal 2.1799885355485025e-14 2.4668840923860248e-14 -1.0
  outer loop
    vertex 116.54831965323453 288.32908685826766 142.00000000000014
    vertex 109.5483196532342 271.8290868582676 142.00000000000014
    vertex 116.54831965323453 309.32908685826754 142.00000000000014
  endloop
endfacet
facet normal 2.1799885355485025e-14 2.4668840923860248e-14 -1.0
  outer loop
    vertex 136.0483196532343 257.82908685826766 142.00000000000014
    vertex 138.5483196532344 260.3290868582676 142.0000000000001
    vertex 138.5483196532344 257.82908685826766 142.0000000000001
  endloop
endfacet
facet normal 2.1799885355485025e-14 2.4668840923860248e-14 -1.0
  outer loop
    vertex 138.5483196532344 260.3290868582676 142.0000000000001
    vertex 136.0483196532343 257.82908685826766 142.00000000000014
    vertex 138.54831965323416 317.3290868582676 142.0000000000001
  endloop
endfacet
facet normal 2.1799885355485025e-14 2.4668840923860248e-14 -1.0
  outer loop
    vertex 138.54831965323416 317.3290868582676 142.0000000000001
    vertex 136.0483196532343 257.82908685826766 142.00000000000014
    vertex 138.54831965323416 319.8290868582676 142.0000000000001
  endloop
endfacet
facet normal 2.1799885355485025e-14 2.4668840923860248e-14 -1.0
  outer loop
    vertex 138.54831965323416 319.8290868582676 142.0000000000001
    vertex 136.0483196532343 257.82908685826766 142.00000000000014
    vertex 136.04831965323396 319.8290868582687 142.00000000000884
  endloop
endfacet
facet normal 2.1799885355485025e-14 2.4668840923860248e-14 -1.0
  outer loop
    vertex 136.04831965323396 319.8290868582687 142.00000000000884
    vertex 136.0483196532343 257.82908685826766 142.00000000000014
    vertex 135.5483196532342 260.8290868582676 142.0000000000001
  endloop
endfacet
facet normal 2.1799885355485025e-14 2.4668840923860248e-14 -1.0
  outer loop
    vertex 135.5483196532342 260.8290868582676 142.0000000000001
    vertex 136.0483196532343 257.82908685826766 142.00000000000014
    vertex 79.04831965323417 257.82908685826766 142.00000000000017
  endloop
endfacet
facet normal 2.1799885355485025e-14 2.4668840923860248e-14 -1.0
  outer loop
    vertex 135.5483196532342 260.8290868582676 142.0000000000001
    vertex 79.04831965323417 257.82908685826766 142.00000000000017
    vertex 124.54831965323424 260.8290868582676 142.00000000000014
  endloop
endfacet
facet normal 2.1799885355485025e-14 2.4668840923860248e-14 -1.0
  outer loop
    vertex 124.54831965323424 260.8290868582676 142.00000000000014
    vertex 79.04831965323417 257.82908685826766 142.00000000000017
    vertex 120.54831965323424 260.8290868582676 142.00000000000014
  endloop
endfacet
facet normal 2.1799885355485025e-14 2.4668840923860248e-14 -1.0
  outer loop
    vertex 124.54831965323424 260.8290868582676 142.00000000000014
    vertex 120.54831965323424 260.8290868582676 142.00000000000014
    vertex 124.54831965323424 271.8290868582676 142.00000000000014
  endloop
endfacet
facet normal 2.1799885355485025e-14 2.4668840923860248e-14 -1.0
  outer loop
    vertex 120.54831965323424 260.8290868582676 142.00000000000014
    vertex 79.04831965323417 257.82908685826766 142.00000000000017
    vertex 109.5483196532342 260.8290868582676 142.00000000000014
  endloop
endfacet
facet normal 2.1799885355485025e-14 2.4668840923860248e-14 -1.0
  outer loop
    vertex 109.5483196532342 260.8290868582676 142.00000000000014
    vertex 79.04831965323417 257.82908685826766 142.00000000000017
    vertex 90.54831965323423 260.8290868582676 142.00000000000017
  endloop
endfacet
facet normal 2.1799885355485025e-14 2.4668840923860248e-14 -1.0
  outer loop
    vertex 109.5483196532342 260.8290868582676 142.00000000000014
    vertex 90.54831965323423 260.8290868582676 142.00000000000017
    vertex 109.5483196532342 271.8290868582676 142.00000000000014
  endloop
endfacet
facet normal 2.1799885355485025e-14 2.4668840923860248e-14 -1.0
  outer loop
    vertex 90.54831965323423 260.8290868582676 142.00000000000017
    vertex 79.04831965323417 257.82908685826766 142.00000000000017
    vertex 79.54831965323429 260.8290868582676 142.00000000000017
  endloop
endfacet
facet normal 2.1799885355485025e-14 2.4668840923860248e-14 -1.0
  outer loop
    vertex 79.54831965323429 260.8290868582676 142.00000000000017
    vertex 79.04831965323417 257.82908685826766 142.00000000000017
    vertex 79.54831965323429 271.8290868582676 142.00000000000017
  endloop
endfacet
facet normal 2.1799885355485025e-14 2.4668840923860248e-14 -1.0
  outer loop
    vertex 79.54831965323429 271.8290868582676 142.00000000000017
    vertex 79.04831965323417 257.82908685826766 142.00000000000017
    vertex 79.54831965323429 275.8290868582676 142.0000000000002
  endloop
endfacet
facet normal 2.1799885355485025e-14 2.4668840923860248e-14 -1.0
  outer loop
    vertex 79.54831965323429 275.8290868582676 142.0000000000002
    vertex 79.04831965323417 257.82908685826766 142.00000000000017
    vertex 79.54831965323429 286.8290868582676 142.00000000000017
  endloop
endfacet
facet normal 2.1799885355485025e-14 2.4668840923860248e-14 -1.0
  outer loop
    vertex 79.54831965323429 286.8290868582676 142.00000000000017
    vertex 79.04831965323417 257.82908685826766 142.00000000000017
    vertex 79.54831965323429 290.8290868582676 142.00000000000017
  endloop
endfacet
facet normal 2.1799885355485025e-14 2.4668840923860248e-14 -1.0
  outer loop
    vertex 79.54831965323429 290.8290868582676 142.00000000000017
    vertex 79.04831965323417 257.82908685826766 142.00000000000017
    vertex 79.54831965323429 301.82908685826754 142.0000000000001
  endloop
endfacet
facet normal 2.1799885355485025e-14 2.4668840923860248e-14 -1.0
  outer loop
    vertex 79.54831965323429 301.82908685826754 142.0000000000001
    vertex 79.04831965323417 257.82908685826766 142.00000000000017
    vertex 79.54831965323429 305.82908685826754 142.0000000000001
  endloop
endfacet
facet normal 2.1799885355485025e-14 2.4668840923860248e-14 -1.0
  outer loop
    vertex 79.54831965323429 305.82908685826754 142.0000000000001
    vertex 79.04831965323417 257.82908685826766 142.00000000000017
    vertex 79.54831965323429 316.82908685826754 142.0000000000001
  endloop
endfacet
facet normal 2.1799885355485025e-14 2.4668840923860248e-14 -1.0
  outer loop
    vertex 136.04831965323396 319.8290868582687 142.00000000000884
    vertex 130.5483196532345 309.32908685826754 142.00000000000014
    vertex 79.04831965323417 319.8290868582676 142.0000000000002
  endloop
endfacet
facet normal 2.1799885355485025e-14 2.4668840923860248e-14 -1.0
  outer loop
    vertex 130.5483196532345 309.32908685826754 142.00000000000014
    vertex 136.04831965323396 319.8290868582687 142.00000000000884
    vertex 135.5483196532342 271.8290868582676 142.0000000000001
  endloop
endfacet
facet normal 2.1799885355485025e-14 2.4668840923860248e-14 -1.0
  outer loop
    vertex 135.5483196532342 271.8290868582676 142.0000000000001
    vertex 136.04831965323396 319.8290868582687 142.00000000000884
    vertex 135.5483196532342 260.8290868582676 142.0000000000001
  endloop
endfacet
facet normal 2.1799885355485025e-14 2.4668840923860248e-14 -1.0
  outer loop
    vertex 130.5483196532345 309.32908685826754 142.00000000000014
    vertex 135.5483196532342 271.8290868582676 142.0000000000001
    vertex 130.5483196532345 288.32908685826766 142.00000000000014
  endloop
endfacet
facet normal 2.1799885355485025e-14 2.4668840923860248e-14 -1.0
  outer loop
    vertex 79.04831965323417 319.8290868582676 142.0000000000002
    vertex 130.5483196532345 309.32908685826754 142.00000000000014
    vertex 90.54831965323423 316.82908685826754 142.0000000000002
  endloop
endfacet
facet normal 2.1799885355485025e-14 2.4668840923860248e-14 -1.0
  outer loop
    vertex 90.54831965323423 316.82908685826754 142.0000000000002
    vertex 130.5483196532345 309.32908685826754 142.00000000000014
    vertex 116.54831965323453 309.32908685826754 142.00000000000014
  endloop
endfacet
facet normal 2.1799885355485025e-14 2.4668840923860248e-14 -1.0
  outer loop
    vertex 90.54831965323423 316.82908685826754 142.0000000000002
    vertex 116.54831965323453 309.32908685826754 142.00000000000014
    vertex 109.5483196532342 271.8290868582676 142.00000000000014
  endloop
endfacet
facet normal 2.1799885355485025e-14 2.4668840923860248e-14 -1.0
  outer loop
    vertex 90.54831965323423 316.82908685826754 142.0000000000002
    vertex 109.5483196532342 271.8290868582676 142.00000000000014
    vertex 90.54831965323423 260.8290868582676 142.00000000000017
  endloop
endfacet
facet normal 2.1799885355485025e-14 2.4668840923860248e-14 -1.0
  outer loop
    vertex 90.54831965323423 316.82908685826754 142.0000000000002
    vertex 90.54831965323423 260.8290868582676 142.00000000000017
    vertex 90.54831965323423 271.8290868582676 142.00000000000017
  endloop
endfacet
facet normal 2.1799885355485025e-14 2.4668840923860248e-14 -1.0
  outer loop
    vertex 90.54831965323423 316.82908685826754 142.0000000000002
    vertex 90.54831965323423 271.8290868582676 142.00000000000017
    vertex 90.54831965323423 275.8290868582676 142.00000000000017
  endloop
endfacet
facet normal 2.1799885355485025e-14 2.4668840923860248e-14 -1.0
  outer loop
    vertex 90.54831965323423 316.82908685826754 142.0000000000002
    vertex 90.54831965323423 275.8290868582676 142.00000000000017
    vertex 90.54831965323423 286.8290868582676 142.0000000000002
  endloop
endfacet
facet normal 2.1799885355485025e-14 2.4668840923860248e-14 -1.0
  outer loop
    vertex 90.54831965323423 316.82908685826754 142.0000000000002
    vertex 90.54831965323423 286.8290868582676 142.0000000000002
    vertex 90.54831965323423 290.8290868582676 142.0000000000002
  endloop
endfacet
facet normal 2.1799885355485025e-14 2.4668840923860248e-14 -1.0
  outer loop
    vertex 90.54831965323423 316.82908685826754 142.0000000000002
    vertex 90.54831965323423 290.8290868582676 142.0000000000002
    vertex 90.54831965323423 301.82908685826754 142.0000000000002
  endloop
endfacet
facet normal 2.1799885355485025e-14 2.4668840923860248e-14 -1.0
  outer loop
    vertex 90.54831965323423 316.82908685826754 142.0000000000002
    vertex 90.54831965323423 301.82908685826754 142.0000000000002
    vertex 90.54831965323423 305.82908685826754 142.0000000000002
  endloop
endfacet
facet normal 2.1799885355485025e-14 2.4668840923860248e-14 -1.0
  outer loop
    vertex 79.04831965323417 319.8290868582676 142.0000000000002
    vertex 90.54831965323423 316.82908685826754 142.0000000000002
    vertex 79.54831965323429 316.82908685826754 142.0000000000001
  endloop
endfacet
facet normal 2.1799885355485025e-14 2.4668840923860248e-14 -1.0
  outer loop
    vertex 79.04831965323417 319.8290868582676 142.0000000000002
    vertex 79.54831965323429 316.82908685826754 142.0000000000001
    vertex 79.04831965323417 257.82908685826766 142.00000000000017
  endloop
endfacet
facet normal 2.1799885355485025e-14 2.4668840923860248e-14 -1.0
  outer loop
    vertex 79.04831965323417 319.8290868582676 142.0000000000002
    vertex 79.04831965323417 257.82908685826766 142.00000000000017
    vertex 76.5483196532343 257.82908685826766 142.00000000000017
  endloop
endfacet
facet normal 2.1799885355485025e-14 2.4668840923860248e-14 -1.0
  outer loop
    vertex 79.04831965323417 319.8290868582676 142.0000000000002
    vertex 76.5483196532343 257.82908685826766 142.00000000000017
    vertex 76.5483196532343 319.8290868582676 142.0000000000002
  endloop
endfacet
facet normal 2.1799885355485025e-14 2.4668840923860248e-14 -1.0
  outer loop
    vertex 76.5483196532343 319.8290868582676 142.0000000000002
    vertex 76.5483196532343 257.82908685826766 142.00000000000017
    vertex 76.5483196532343 260.3290868582676 142.00000000000017
  endloop
endfacet
facet normal 2.1799885355485025e-14 2.4668840923860248e-14 -1.0
  outer loop
    vertex 76.5483196532343 319.8290868582676 142.0000000000002
    vertex 76.5483196532343 260.3290868582676 142.00000000000017
    vertex 76.5483196532343 317.3290868582676 142.0000000000002
  endloop
endfacet
facet normal 2.1799885355485025e-14 2.4668840923860248e-14 -1.0
  outer loop
    vertex 79.54831965323429 301.82908685826754 142.0000000000001
    vertex 90.54831965323423 305.82908685826754 142.0000000000002
    vertex 90.54831965323423 301.82908685826754 142.0000000000002
  endloop
endfacet
facet normal 2.1799885355485025e-14 2.4668840923860248e-14 -1.0
  outer loop
    vertex 90.54831965323423 305.82908685826754 142.0000000000002
    vertex 79.54831965323429 301.82908685826754 142.0000000000001
    vertex 79.54831965323429 305.82908685826754 142.0000000000001
  endloop
endfacet
facet normal 2.1799885355485025e-14 2.4668840923860248e-14 -1.0
  outer loop
    vertex 79.54831965323429 286.8290868582676 142.00000000000017
    vertex 90.54831965323423 290.8290868582676 142.0000000000002
    vertex 90.54831965323423 286.8290868582676 142.0000000000002
  endloop
endfacet
facet normal 2.1799885355485025e-14 2.4668840923860248e-14 -1.0
  outer loop
    vertex 90.54831965323423 290.8290868582676 142.0000000000002
    vertex 79.54831965323429 286.8290868582676 142.00000000000017
    vertex 79.54831965323429 290.8290868582676 142.00000000000017
  endloop
endfacet
facet normal 2.1799885355485025e-14 2.4668840923860248e-14 -1.0
  outer loop
    vertex 79.54831965323429 271.8290868582676 142.00000000000017
    vertex 90.54831965323423 275.8290868582676 142.00000000000017
    vertex 90.54831965323423 271.8290868582676 142.00000000000017
  endloop
endfacet
facet normal 2.1799885355485025e-14 2.4668840923860248e-14 -1.0
  outer loop
    vertex 90.54831965323423 275.8290868582676 142.00000000000017
    vertex 79.54831965323429 271.8290868582676 142.00000000000017
    vertex 79.54831965323429 275.8290868582676 142.0000000000002
  endloop
endfacet
facet normal -1.0909784935627474e-15 -3.978624171691798e-15 -1.0
  outer loop
    vertex 138.5483196532344 260.3290868582676 137.00000000000014
    vertex 140.04831965323436 260.3290868582676 137.0000000000001
    vertex 138.5483196532344 257.82908685826766 137.00000000000014
  endloop
endfacet
facet normal -1.0909784935627474e-15 -3.978624171691798e-15 -1.0
  outer loop
    vertex 140.04831965323436 256.3290868582676 137.00000000000014
    vertex 138.5483196532344 257.82908685826766 137.00000000000014
    vertex 140.04831965323436 260.3290868582676 137.0000000000001
  endloop
endfacet
facet normal -1.0909784935627474e-15 -3.978624171691798e-15 -1.0
  outer loop
    vertex 138.5483196532344 257.82908685826766 137.00000000000014
    vertex 140.04831965323436 256.3290868582676 137.00000000000014
    vertex 136.0483196532343 256.3290868582676 137.00000000000014
  endloop
endfacet
facet normal -1.0909784935627474e-15 -3.978624171691798e-15 -1.0
  outer loop
    vertex 138.5483196532344 257.82908685826766 137.00000000000014
    vertex 136.0483196532343 256.3290868582676 137.00000000000014
    vertex 136.0483196532343 257.82908685826766 137.00000000000014
  endloop
endfacet
facet normal -1.0 -2.7369110631344083e-48 1.0909784935627476e-15
  outer loop
    vertex 138.5483196532344 257.82908685826766 137.00000000000014
    vertex 138.5483196532344 260.3290868582676 142.0000000000001
    vertex 138.5483196532344 260.3290868582676 137.00000000000014
  endloop
endfacet
facet normal -1.0 -2.7369110631344083e-48 1.0909784935627476e-15
  outer loop
    vertex 138.5483196532344 260.3290868582676 142.0000000000001
    vertex 138.5483196532344 257.82908685826766 137.00000000000014
    vertex 138.5483196532344 257.82908685826766 142.0000000000001
  endloop
endfacet
facet normal 3.007964248051134e-14 1.0 -3.9786241716918305e-15
  outer loop
    vertex 138.5483196532344 260.3290868582676 137.00000000000014
    vertex 140.04831965323436 260.3290868582676 142.0000000000001
    vertex 140.04831965323436 260.3290868582676 137.0000000000001
  endloop
endfacet
facet normal 3.007964248051134e-14 1.0 -3.9786241716918305e-15
  outer loop
    vertex 140.04831965323436 260.3290868582676 142.0000000000001
    vertex 138.5483196532344 260.3290868582676 137.00000000000014
    vertex 138.5483196532344 260.3290868582676 142.0000000000001
  endloop
endfacet
facet normal 1.0 -9.229568355082652e-30 -1.0909784935627474e-15
  outer loop
    vertex 140.04831965323436 256.3290868582676 142.00000000000014
    vertex 140.04831965323436 260.3290868582676 137.0000000000001
    vertex 140.04831965323436 260.3290868582676 142.0000000000001
  endloop
endfacet
facet normal 1.0 -9.229568355082652e-30 -1.0909784935627474e-15
  outer loop
    vertex 140.04831965323436 260.3290868582676 137.0000000000001
    vertex 140.04831965323436 256.3290868582676 142.00000000000014
    vertex 140.04831965323436 256.3290868582676 137.00000000000014
  endloop
endfacet
facet normal -5.609793405412764e-30 -1.0 3.978624171691798e-15
  outer loop
    vertex 140.04831965323436 256.3290868582676 137.00000000000014
    vertex 136.0483196532343 256.3290868582676 142.00000000000014
    vertex 136.0483196532343 256.3290868582676 137.00000000000014
  endloop
endfacet
facet normal -5.609793405412764e-30 -1.0 3.978624171691798e-15
  outer loop
    vertex 136.0483196532343 256.3290868582676 142.00000000000014
    vertex 140.04831965323436 256.3290868582676 137.00000000000014
    vertex 140.04831965323436 256.3290868582676 142.00000000000014
  endloop
endfacet
facet normal -1.0 6.842277657836021e-49 1.0909784935627474e-15
  outer loop
    vertex 136.0483196532343 256.3290868582676 137.00000000000014
    vertex 136.0483196532343 257.82908685826766 142.00000000000014
    vertex 136.0483196532343 257.82908685826766 137.00000000000014
  endloop
endfacet
facet normal -1.0 6.842277657836021e-49 1.0909784935627474e-15
  outer loop
    vertex 136.0483196532343 257.82908685826766 142.00000000000014
    vertex 136.0483196532343 256.3290868582676 137.00000000000014
    vertex 136.0483196532343 256.3290868582676 142.00000000000014
  endloop
endfacet
facet normal 0.0 1.0 -3.978624171691798e-15
  outer loop
    vertex 136.0483196532343 257.82908685826766 142.00000000000014
    vertex 138.5483196532344 257.82908685826766 137.00000000000014
    vertex 136.0483196532343 257.82908685826766 137.00000000000014
  endloop
endfacet
facet normal 0.0 1.0 -3.978624171691798e-15
  outer loop
    vertex 138.5483196532344 257.82908685826766 137.00000000000014
    vertex 136.0483196532343 257.82908685826766 142.00000000000014
    vertex 138.5483196532344 257.82908685826766 142.0000000000001
  endloop
endfacet
endsolid tracker
