solid tracker
facet normal 0.0 1.0 0.0
  outer loop
    vertex 78.99831965323435 260.3790868582676 81.99999999999994
    vertex 135.9983196532343 260.3790868582676 82.0
    vertex 79.09831965323428 260.3790868582676 81.99999999999994
  endloop
endfacet
facet normal 0.0 1.0 0.0
  outer loop
    vertex 135.9983196532343 260.3790868582676 82.0
    vertex 78.99831965323435 260.3790868582676 81.99999999999994
    vertex 78.99831965323429 260.3790868582676 87.29999999999994
  endloop
endfacet
facet normal 0.0 1.0 0.0
  outer loop
    vertex 135.9983196532343 260.3790868582676 82.0
    vertex 78.99831965323429 260.3790868582676 87.29999999999994
    vertex 135.9983196532343 260.3790868582676 87.3
  endloop
endfacet
facet normal 0.0 -1.0 0.0
  outer loop
    vertex 135.9983196532343 317.37908685826767 82.0
    vertex 78.99831965323429 317.37908685826767 87.29999999999994
    vertex 78.99831965323435 317.37908685826767 81.99999999999994
  endloop
endfacet
facet normal 0.0 -1.0 0.0
  outer loop
    vertex 78.99831965323429 317.37908685826767 87.29999999999994
    vertex 135.9983196532343 317.37908685826767 82.0
    vertex 135.9983196532343 317.37908685826767 87.3
  endloop
endfacet
facet normal -1.0 0.0 -1.0641382953010943e-14
  outer loop
    vertex 76.99831965323429 319.37908685826767 87.29999999999994
    vertex 76.99831965323435 258.37908685826767 81.99999999999994
    vertex 76.99831965323429 258.37908685826767 87.29999999999994
  endloop
endfacet
facet normal -1.0 0.0 -1.0641382953010943e-14
  outer loop
    vertex 76.99831965323435 258.37908685826767 81.99999999999994
    vertex 76.99831965323429 319.37908685826767 87.29999999999994
    vertex 76.99831965323435 319.37908685826767 81.99999999999994
  endloop
endfacet
facet normal -9.818911989389068e-16 -3.2868225883867984e-20 1.0
  outer loop
    vertex 76.99831965323429 258.37908685826767 87.29999999999994
    vertex 78.99831965323429 260.3790868582676 87.29999999999994
    vertex 76.99831965323429 319.37908685826767 87.29999999999994
  endloop
endfacet
facet normal -9.818911989389068e-16 -3.2868225883867984e-20 1.0
  outer loop
    vertex 78.99831965323429 260.3790868582676 87.29999999999994
    vertex 76.99831965323429 258.37908685826767 87.29999999999994
    vertex 137.99831965323426 258.37908685826767 87.3
  endloop
endfacet
facet normal -9.818911989389068e-16 -3.2868225883867984e-20 1.0
  outer loop
    vertex 78.99831965323429 260.3790868582676 87.29999999999994
    vertex 137.99831965323426 258.37908685826767 87.3
    vertex 135.9983196532343 260.3790868582676 87.3
  endloop
endfacet
facet normal -9.818911989389068e-16 -3.2868225883867984e-20 1.0
  outer loop
    vertex 135.9983196532343 260.3790868582676 87.3
    vertex 137.99831965323426 258.37908685826767 87.3
    vertex 135.9983196532343 270.47908685826764 87.3
  endloop
endfacet
facet normal -9.818911989389068e-16 -3.2868225883867984e-20 1.0
  outer loop
    vertex 135.9983196532343 270.47908685826764 87.3
    vertex 137.99831965323426 258.37908685826767 87.3
    vertex 137.99831965323426 270.47908685826764 87.3
  endloop
endfacet
facet normal -9.818911989389068e-16 -3.2868225883867984e-20 1.0
  outer loop
    vertex 137.99831965323423 307.37908685826767 87.3
    vertex 135.9983196532343 317.37908685826767 87.3
    vertex 135.9983196532343 307.37908685826767 87.3
  endloop
endfacet
facet normal -9.818911989389068e-16 -3.2868225883867984e-20 1.0
  outer loop
    vertex 76.99831965323429 319.37908685826767 87.29999999999994
    vertex 78.99831965323429 317.37908685826767 87.29999999999994
    vertex 137.99831965323426 319.37908685826767 87.3
  endloop
endfacet
facet normal -9.818911989389068e-16 -3.2868225883867984e-20 1.0
  outer loop
    vertex 78.99831965323429 317.37908685826767 87.29999999999994
    vertex 76.99831965323429 319.37908685826767 87.29999999999994
    vertex 78.99831965323429 260.3790868582676 87.29999999999994
  endloop
endfacet
facet normal -9.818911989389068e-16 -3.2868225883867984e-20 1.0
  outer loop
    vertex 137.99831965323426 319.37908685826767 87.3
    vertex 78.99831965323429 317.37908685826767 87.29999999999994
    vertex 135.9983196532343 317.37908685826767 87.3
  endloop
endfacet
facet normal -9.818911989389068e-16 -3.2868225883867984e-20 1.0
  outer loop
    vertex 137.99831965323426 319.37908685826767 87.3
    vertex 135.9983196532343 317.37908685826767 87.3
    vertex 137.99831965323423 307.37908685826767 87.3
  endloop
endfacet
facet normal 1.0 0.0 1.0641382953010932e-14
  outer loop
    vertex 78.99831965323435 317.37908685826767 81.99999999999994
    vertex 78.99831965323429 260.3790868582676 87.29999999999994
    vertex 78.99831965323435 260.3790868582676 81.99999999999994
  endloop
endfacet
facet normal 1.0 0.0 1.0641382953010932e-14
  outer loop
    vertex 78.99831965323429 260.3790868582676 87.29999999999994
    vertex 78.99831965323435 317.37908685826767 81.99999999999994
    vertex 78.99831965323429 317.37908685826767 87.29999999999994
  endloop
endfacet
facet normal 0.0 1.0 0.0
  outer loop
    vertex 76.99831965323429 319.37908685826767 87.29999999999994
    vertex 137.99831965323426 319.37908685826767 82.0
    vertex 76.99831965323435 319.37908685826767 81.99999999999994
  endloop
endfacet
facet normal 0.0 1.0 0.0
  outer loop
    vertex 137.99831965323426 319.37908685826767 82.0
    vertex 76.99831965323429 319.37908685826767 87.29999999999994
    vertex 137.99831965323426 319.37908685826767 87.3
  endloop
endfacet
facet normal 9.139917676158187e-16 1.88819682107991e-17 -1.0
  outer loop
    vertex 78.99831965323435 317.37908685826767 81.99999999999994
    vertex 76.99831965323435 258.37908685826767 81.99999999999994
    vertex 76.99831965323435 319.37908685826767 81.99999999999994
  endloop
endfacet
facet normal 9.139917676158187e-16 1.88819682107991e-17 -1.0
  outer loop
    vertex 76.99831965323435 258.37908685826767 81.99999999999994
    vertex 78.99831965323435 317.37908685826767 81.99999999999994
    vertex 78.99831965323435 260.3790868582676 81.99999999999994
  endloop
endfacet
facet normal 9.139917676158187e-16 1.88819682107991e-17 -1.0
  outer loop
    vertex 76.99831965323435 258.37908685826767 81.99999999999994
    vertex 78.99831965323435 260.3790868582676 81.99999999999994
    vertex 137.99831965323426 258.37908685826767 82.0
  endloop
endfacet
facet normal 9.139917676158187e-16 1.88819682107991e-17 -1.0
  outer loop
    vertex 137.99831965323426 258.37908685826767 82.0
    vertex 78.99831965323435 260.3790868582676 81.99999999999994
    vertex 79.09831965323428 260.3790868582676 81.99999999999994
  endloop
endfacet
facet normal 9.139917676158187e-16 1.88819682107991e-17 -1.0
  outer loop
    vertex 137.99831965323426 258.37908685826767 82.0
    vertex 79.09831965323428 260.3790868582676 81.99999999999994
    vertex 135.9983196532343 260.3790868582676 82.0
  endloop
endfacet
facet normal 9.139917676158187e-16 1.88819682107991e-17 -1.0
  outer loop
    vertex 137.99831965323426 258.37908685826767 82.0
    vertex 135.9983196532343 260.3790868582676 82.0
    vertex 135.99831965323432 270.4790868582676 82.0
  endloop
endfacet
facet normal 9.139917676158187e-16 1.88819682107991e-17 -1.0
  outer loop
    vertex 137.99831965323426 258.37908685826767 82.0
    vertex 135.99831965323432 270.4790868582676 82.0
    vertex 137.99831965323426 270.4790868582676 82.00000000000001
  endloop
endfacet
facet normal 8.646158926795664e-16 -1.0801000557270605e-15 -1.0
  outer loop
    vertex 137.99831965323426 319.37908685826767 82.0
    vertex 78.99831965323435 317.37908685826767 81.99999999999994
    vertex 76.99831965323435 319.37908685826767 81.99999999999994
  endloop
endfacet
facet normal 8.646158926795664e-16 -1.0801000557270605e-15 -1.0
  outer loop
    vertex 78.99831965323435 317.37908685826767 81.99999999999994
    vertex 137.99831965323426 319.37908685826767 82.0
    vertex 135.9983196532343 317.37908685826767 82.0
  endloop
endfacet
facet normal 8.646158926795664e-16 -1.0801000557270605e-15 -1.0
  outer loop
    vertex 135.9983196532343 317.37908685826767 82.0
    vertex 137.99831965323426 319.37908685826767 82.0
    vertex 137.99831965323423 307.37908685826767 82.00000000000001
  endloop
endfacet
facet normal 8.646158926795664e-16 -1.0801000557270605e-15 -1.0
  outer loop
    vertex 137.99831965323423 307.37908685826767 82.00000000000001
    vertex 135.9983196532343 317.27908685826765 82.0
    vertex 135.9983196532343 317.37908685826767 82.0
  endloop
endfacet
facet normal -6.344924585732907e-15 1.424225496236298e-16 1.0
  outer loop
    vertex 137.99831965323423 307.37908685826767 82.00000000000001
    vertex 135.9983196532343 317.27908685826765 82.0
    vertex 135.9983196532343 307.37908685826767 82.0
  endloop
endfacet
facet normal 0.0 -1.0 0.0
  outer loop
    vertex 137.99831965323426 258.37908685826767 82.0
    vertex 76.99831965323429 258.37908685826767 87.29999999999994
    vertex 76.99831965323435 258.37908685826767 81.99999999999994
  endloop
endfacet
facet normal 0.0 -1.0 0.0
  outer loop
    vertex 76.99831965323429 258.37908685826767 87.29999999999994
    vertex 137.99831965323426 258.37908685826767 82.0
    vertex 137.99831965323426 258.37908685826767 87.3
  endloop
endfacet
facet normal 1.0 2.3305508120230545e-16 2.1282765906021854e-15
  outer loop
    vertex 137.99831965323426 270.4790868582676 82.00000000000001
    vertex 137.99831965323426 258.37908685826767 87.3
    vertex 137.99831965323426 258.37908685826767 82.0
  endloop
endfacet
facet normal 1.0 2.3305508120230545e-16 2.1282765906021854e-15
  outer loop
    vertex 137.99831965323426 258.37908685826767 87.3
    vertex 137.99831965323426 270.4790868582676 82.00000000000001
    vertex 137.99831965323426 270.47908685826764 87.3
  endloop
endfacet
facet normal -1.0 -7.940828552660569e-17 -3.791845008915823e-16
  outer loop
    vertex 135.9983196532343 317.37908685826767 87.3
    vertex 135.9983196532343 307.37908685826767 82.0
    vertex 135.9983196532343 307.37908685826767 87.3
  endloop
endfacet
facet normal -1.0 -7.940828552660569e-17 -3.791845008915823e-16
  outer loop
    vertex 135.9983196532343 307.37908685826767 82.0
    vertex 135.9983196532343 317.37908685826767 87.3
    vertex 135.9983196532343 317.27908685826765 82.0
  endloop
endfacet
facet normal -1.0 -7.940828552660569e-17 -3.791845008915823e-16
  outer loop
    vertex 135.9983196532343 317.27908685826765 82.0
    vertex 135.9983196532343 317.37908685826767 87.3
    vertex 135.9983196532343 317.37908685826767 82.0
  endloop
endfacet
facet normal -1.0 3.3504552267895843e-15 -2.6603457382527365e-15
  outer loop
    vertex 135.9983196532343 270.47908685826764 87.3
    vertex 135.9983196532343 260.3790868582676 82.0
    vertex 135.9983196532343 260.3790868582676 87.3
  endloop
endfacet
facet normal -1.0 3.3504552267895843e-15 -2.6603457382527365e-15
  outer loop
    vertex 135.9983196532343 260.3790868582676 82.0
    vertex 135.9983196532343 270.47908685826764 87.3
    vertex 135.99831965323432 270.4790868582676 82.0
  endloop
endfacet
facet normal 7.450508973891883e-30 1.0 -2.128276590602186e-15
  outer loop
    vertex 135.9983196532343 270.47908685826764 87.3
    vertex 137.99831965323426 270.4790868582676 82.00000000000001
    vertex 135.99831965323432 270.4790868582676 82.0
  endloop
endfacet
facet normal 7.450508973891883e-30 1.0 -2.128276590602186e-15
  outer loop
    vertex 137.99831965323426 270.4790868582676 82.00000000000001
    vertex 135.9983196532343 270.47908685826764 87.3
    vertex 137.99831965323426 270.47908685826764 87.3
  endloop
endfacet
facet normal 2.819966482547957e-15 -1.0 1.1390254110078985e-30
  outer loop
    vertex 137.99831965323423 307.37908685826767 82.00000000000001
    vertex 135.9983196532343 307.37908685826767 87.3
    vertex 135.9983196532343 307.37908685826767 82.0
  endloop
endfacet
facet normal 2.819966482547957e-15 -1.0 1.1390254110078985e-30
  outer loop
    vertex 135.9983196532343 307.37908685826767 87.3
    vertex 137.99831965323423 307.37908685826767 82.00000000000001
    vertex 137.99831965323423 307.37908685826767 87.3
  endloop
endfacet
facet normal 1.0 -2.9962143877071437e-15 1.3301728691263642e-16
  outer loop
    vertex 137.99831965323426 319.37908685826767 82.0
    vertex 137.99831965323423 307.37908685826767 87.3
    vertex 137.99831965323423 307.37908685826767 82.00000000000001
  endloop
endfacet
facet normal 1.0 -2.9962143877071437e-15 1.3301728691263642e-16
  outer loop
    vertex 137.99831965323423 307.37908685826767 87.3
    vertex 137.99831965323426 319.37908685826767 82.0
    vertex 137.99831965323426 319.37908685826767 87.3
  endloop
endfacet
facet normal 0.0 -1.0 0.0
  outer loop
    vertex 138.04831965323427 319.32908685826766 75.0
    vertex 77.04831965323424 319.32908685826766 79.99999999999994
    vertex 77.04831965323424 319.32908685826766 74.99999999999994
  endloop
endfacet
facet normal 0.0 -1.0 0.0
  outer loop
    vertex 77.04831965323424 319.32908685826766 79.99999999999994
    vertex 138.04831965323427 319.32908685826766 75.0
    vertex 138.04831965323427 319.32908685826766 80.0
  endloop
endfacet
facet normal -1.0 0.0 0.0
  outer loop
    vertex 75.04831965323424 321.32908685826766 79.99999999999994
    vertex 75.04831965323424 256.32908685826766 74.99999999999994
    vertex 75.04831965323424 256.32908685826766 79.99999999999994
  endloop
endfacet
facet normal -1.0 0.0 0.0
  outer loop
    vertex 75.04831965323424 256.32908685826766 74.99999999999994
    vertex 75.04831965323424 321.32908685826766 79.99999999999994
    vertex 75.04831965323424 321.32908685826766 74.99999999999994
  endloop
endfacet
facet normal -1.0 0.0 -1.127986593019159e-15
  outer loop
    vertex 138.04831965323427 319.32908685826766 80.0
    vertex 138.04831965323427 258.32908685826766 75.0
    vertex 138.04831965323427 258.32908685826766 80.0
  endloop
endfacet
facet normal -1.0 0.0 -1.127986593019159e-15
  outer loop
    vertex 138.04831965323427 258.32908685826766 75.0
    vertex 138.04831965323427 319.32908685826766 80.0
    vertex 138.04831965323427 319.32908685826766 75.0
  endloop
endfacet
facet normal 0.0 1.0 0.0
  outer loop
    vertex 75.04831965323424 321.32908685826766 79.99999999999994
    vertex 140.04831965323427 321.32908685826766 75.0
    vertex 75.04831965323424 321.32908685826766 74.99999999999994
  endloop
endfacet
facet normal 0.0 1.0 0.0
  outer loop
    vertex 140.04831965323427 321.32908685826766 75.0
    vertex 75.04831965323424 321.32908685826766 79.99999999999994
    vertex 140.04831965323427 321.32908685826766 80.0
  endloop
endfacet
facet normal 1.0 0.0 0.0
  outer loop
    vertex 77.04831965323424 319.32908685826766 74.99999999999994
    vertex 77.04831965323424 258.32908685826766 79.99999999999994
    vertex 77.04831965323424 258.32908685826766 74.99999999999994
  endloop
endfacet
facet normal 1.0 0.0 0.0
  outer loop
    vertex 77.04831965323424 258.32908685826766 79.99999999999994
    vertex 77.04831965323424 319.32908685826766 74.99999999999994
    vertex 77.04831965323424 319.32908685826766 79.99999999999994
  endloop
endfacet
facet normal -8.842813395772301e-16 6.959891927833932e-20 1.0
  outer loop
    vertex 75.04831965323424 256.32908685826766 79.99999999999994
    vertex 77.04831965323424 258.32908685826766 79.99999999999994
    vertex 75.04831965323424 321.32908685826766 79.99999999999994
  endloop
endfacet
facet normal -8.842813395772301e-16 6.959891927833932e-20 1.0
  outer loop
    vertex 77.04831965323424 258.32908685826766 79.99999999999994
    vertex 75.04831965323424 256.32908685826766 79.99999999999994
    vertex 140.04831965323427 256.32908685826766 80.0
  endloop
endfacet
facet normal -8.842813395772301e-16 6.959891927833932e-20 1.0
  outer loop
    vertex 77.04831965323424 258.32908685826766 79.99999999999994
    vertex 140.04831965323427 256.32908685826766 80.0
    vertex 138.04831965323427 258.32908685826766 80.0
  endloop
endfacet
facet normal -8.842813395772301e-16 6.959891927833932e-20 1.0
  outer loop
    vertex 138.04831965323427 258.32908685826766 80.0
    vertex 140.04831965323427 256.32908685826766 80.0
    vertex 138.04831965323427 319.32908685826766 80.0
  endloop
endfacet
facet normal -8.842813395772301e-16 6.959891927833932e-20 1.0
  outer loop
    vertex 75.04831965323424 321.32908685826766 79.99999999999994
    vertex 77.04831965323424 319.32908685826766 79.99999999999994
    vertex 140.04831965323427 321.32908685826766 80.0
  endloop
endfacet
facet normal -8.842813395772301e-16 6.959891927833932e-20 1.0
  outer loop
    vertex 77.04831965323424 319.32908685826766 79.99999999999994
    vertex 75.04831965323424 321.32908685826766 79.99999999999994
    vertex 77.04831965323424 258.32908685826766 79.99999999999994
  endloop
endfacet
facet normal -8.842813395772301e-16 6.959891927833932e-20 1.0
  outer loop
    vertex 140.04831965323427 321.32908685826766 80.0
    vertex 77.04831965323424 319.32908685826766 79.99999999999994
    vertex 138.04831965323427 319.32908685826766 80.0
  endloop
endfacet
facet normal -8.842813395772301e-16 6.959891927833932e-20 1.0
  outer loop
    vertex 140.04831965323427 321.32908685826766 80.0
    vertex 138.04831965323427 319.32908685826766 80.0
    vertex 140.04831965323427 256.32908685826766 80.0
  endloop
endfacet
facet normal 0.0 1.0 0.0
  outer loop
    vertex 77.04831965323424 258.32908685826766 79.99999999999994
    vertex 138.04831965323427 258.32908685826766 75.0
    vertex 77.04831965323424 258.32908685826766 74.99999999999994
  endloop
endfacet
facet normal 0.0 1.0 0.0
  outer loop
    vertex 138.04831965323427 258.32908685826766 75.0
    vertex 77.04831965323424 258.32908685826766 79.99999999999994
    vertex 138.04831965323427 258.32908685826766 80.0
  endloop
endfacet
facet normal 1.0 0.0 1.1279865930191593e-15
  outer loop
    vertex 140.04831965323427 321.32908685826766 75.0
    vertex 140.04831965323427 256.32908685826766 80.0
    vertex 140.04831965323427 256.32908685826766 75.0
  endloop
endfacet
facet normal 1.0 0.0 1.1279865930191593e-15
  outer loop
    vertex 140.04831965323427 256.32908685826766 80.0
    vertex 140.04831965323427 321.32908685826766 75.0
    vertex 140.04831965323427 321.32908685826766 80.0
  endloop
endfacet
facet normal 0.0 -1.0 0.0
  outer loop
    vertex 140.04831965323427 256.32908685826766 75.0
    vertex 75.04831965323424 256.32908685826766 79.99999999999994
    vertex 75.04831965323424 256.32908685826766 74.99999999999994
  endloop
endfacet
facet normal 0.0 -1.0 0.0
  outer loop
    vertex 75.04831965323424 256.32908685826766 79.99999999999994
    vertex 140.04831965323427 256.32908685826766 75.0
    vertex 140.04831965323427 256.32908685826766 80.0
  endloop
endfacet
facet normal 8.842179706831304e-16 -6.230025178788448e-21 -1.0
  outer loop
    vertex 75.04831965323424 321.32908685826766 74.99999999999994
    vertex 77.04831965323424 319.32908685826766 74.99999999999994
    vertex 75.04831965323424 256.32908685826766 74.99999999999994
  endloop
endfacet
facet normal 8.842179706831304e-16 -6.230025178788448e-21 -1.0
  outer loop
    vertex 77.04831965323424 319.32908685826766 74.99999999999994
    vertex 75.04831965323424 321.32908685826766 74.99999999999994
    vertex 140.04831965323427 321.32908685826766 75.0
  endloop
endfacet
facet normal 8.842179706831304e-16 -6.230025178788448e-21 -1.0
  outer loop
    vertex 77.04831965323424 319.32908685826766 74.99999999999994
    vertex 140.04831965323427 321.32908685826766 75.0
    vertex 138.04831965323427 319.32908685826766 75.0
  endloop
endfacet
facet normal 8.842179706831304e-16 -6.230025178788448e-21 -1.0
  outer loop
    vertex 138.04831965323427 319.32908685826766 75.0
    vertex 140.04831965323427 321.32908685826766 75.0
    vertex 138.04831965323427 258.32908685826766 75.0
  endloop
endfacet
facet normal 8.842179706831304e-16 -6.230025178788448e-21 -1.0
  outer loop
    vertex 75.04831965323424 256.32908685826766 74.99999999999994
    vertex 77.04831965323424 258.32908685826766 74.99999999999994
    vertex 140.04831965323427 256.32908685826766 75.0
  endloop
endfacet
facet normal 8.842179706831304e-16 -6.230025178788448e-21 -1.0
  outer loop
    vertex 77.04831965323424 258.32908685826766 74.99999999999994
    vertex 75.04831965323424 256.32908685826766 74.99999999999994
    vertex 77.04831965323424 319.32908685826766 74.99999999999994
  endloop
endfacet
facet normal 8.842179706831304e-16 -6.230025178788448e-21 -1.0
  outer loop
    vertex 140.04831965323427 256.32908685826766 75.0
    vertex 77.04831965323424 258.32908685826766 74.99999999999994
    vertex 138.04831965323427 258.32908685826766 75.0
  endloop
endfacet
facet normal 8.842179706831304e-16 -6.230025178788448e-21 -1.0
  outer loop
    vertex 140.04831965323427 256.32908685826766 75.0
    vertex 138.04831965323427 258.32908685826766 75.0
    vertex 140.04831965323427 321.32908685826766 75.0
  endloop
endfacet
facet normal 1.0 0.0 -5.639932965095801e-15
  outer loop
    vertex 79.09831965323427 317.27908685826765 79.99999999999994
    vertex 79.09831965323428 260.3790868582676 81.99999999999994
    vertex 79.09831965323427 260.3790868582676 79.99999999999994
  endloop
endfacet
facet normal 1.0 0.0 -5.639932965095801e-15
  outer loop
    vertex 79.09831965323428 260.3790868582676 81.99999999999994
    vertex 79.09831965323427 317.27908685826765 79.99999999999994
    vertex 79.09831965323428 317.27908685826765 81.99999999999994
  endloop
endfacet
facet normal 0.0 -1.0 0.0
  outer loop
    vertex 135.9983196532343 317.27908685826765 80.0
    vertex 79.09831965323428 317.27908685826765 81.99999999999994
    vertex 79.09831965323427 317.27908685826765 79.99999999999994
  endloop
endfacet
facet normal 0.0 -1.0 0.0
  outer loop
    vertex 79.09831965323428 317.27908685826765 81.99999999999994
    vertex 135.9983196532343 317.27908685826765 80.0
    vertex 135.9983196532343 317.27908685826765 82.0
  endloop
endfacet
facet normal -1.0 3.3504552267895875e-15 4.229949723821847e-15
  outer loop
    vertex 135.99831965323432 270.4790868582676 82.0
    vertex 135.9983196532343 260.3790868582676 80.0
    vertex 135.9983196532343 260.3790868582676 82.0
  endloop
endfacet
facet normal -1.0 3.3504552267895875e-15 4.229949723821847e-15
  outer loop
    vertex 135.9983196532343 260.3790868582676 80.0
    vertex 135.99831965323432 270.4790868582676 82.0
    vertex 135.9983196532343 270.4790868582676 80.0
  endloop
endfacet
facet normal 0.0 1.0 0.0
  outer loop
    vertex 79.09831965323428 260.3790868582676 81.99999999999994
    vertex 135.9983196532343 260.3790868582676 80.0
    vertex 79.09831965323427 260.3790868582676 79.99999999999994
  endloop
endfacet
facet normal 0.0 1.0 0.0
  outer loop
    vertex 135.9983196532343 260.3790868582676 80.0
    vertex 79.09831965323428 260.3790868582676 81.99999999999994
    vertex 135.9983196532343 260.3790868582676 82.0
  endloop
endfacet
facet normal 8.066580434607912e-16 -7.783577004245848e-18 -1.0
  outer loop
    vertex 72.54831965323427 323.82908685826766 79.99999999999993
    vertex 79.09831965323427 317.27908685826765 79.99999999999994
    vertex 72.54831965323427 253.82908685826763 79.99999999999993
  endloop
endfacet
facet normal 8.066580434607912e-16 -7.783577004245848e-18 -1.0
  outer loop
    vertex 79.09831965323427 317.27908685826765 79.99999999999994
    vertex 72.54831965323427 323.82908685826766 79.99999999999993
    vertex 142.54831965323427 323.82908685826766 80.0
  endloop
endfacet
facet normal 8.066580434607912e-16 -7.783577004245848e-18 -1.0
  outer loop
    vertex 79.09831965323427 317.27908685826765 79.99999999999994
    vertex 142.54831965323427 323.82908685826766 80.0
    vertex 135.9983196532343 317.27908685826765 80.0
  endloop
endfacet
facet normal 8.066580434607912e-16 -7.783577004245848e-18 -1.0
  outer loop
    vertex 135.9983196532343 317.27908685826765 80.0
    vertex 142.54831965323427 323.82908685826766 80.0
    vertex 135.9983196532343 307.37908685826767 80.0
  endloop
endfacet
facet normal 8.066580434607912e-16 -7.783577004245848e-18 -1.0
  outer loop
    vertex 135.9983196532343 307.37908685826767 80.0
    vertex 142.54831965323427 323.82908685826766 80.0
    vertex 140.24831965323423 307.37908685826767 79.99999999999997
  endloop
endfacet
facet normal 8.066580434607912e-16 -7.783577004245848e-18 -1.0
  outer loop
    vertex 140.24831965323423 307.37908685826767 79.99999999999997
    vertex 142.54831965323427 323.82908685826766 80.0
    vertex 140.24831965323426 270.47908685826764 79.99999999999997
  endloop
endfacet
facet normal 8.066580434607912e-16 -7.783577004245848e-18 -1.0
  outer loop
    vertex 72.54831965323427 253.82908685826763 79.99999999999993
    vertex 79.09831965323427 260.3790868582676 79.99999999999994
    vertex 142.54831965323427 253.82908685826763 80.0
  endloop
endfacet
facet normal 8.066580434607912e-16 -7.783577004245848e-18 -1.0
  outer loop
    vertex 79.09831965323427 260.3790868582676 79.99999999999994
    vertex 72.54831965323427 253.82908685826763 79.99999999999993
    vertex 79.09831965323427 317.27908685826765 79.99999999999994
  endloop
endfacet
facet normal 8.066580434607912e-16 -7.783577004245848e-18 -1.0
  outer loop
    vertex 142.54831965323427 253.82908685826763 80.0
    vertex 79.09831965323427 260.3790868582676 79.99999999999994
    vertex 135.9983196532343 260.3790868582676 80.0
  endloop
endfacet
facet normal 8.066580434607912e-16 -7.783577004245848e-18 -1.0
  outer loop
    vertex 142.54831965323427 253.82908685826763 80.0
    vertex 135.9983196532343 260.3790868582676 80.0
    vertex 135.9983196532343 270.4790868582676 80.0
  endloop
endfacet
facet normal 8.066580434607912e-16 -7.783577004245848e-18 -1.0
  outer loop
    vertex 142.54831965323427 253.82908685826763 80.0
    vertex 135.9983196532343 270.4790868582676 80.0
    vertex 140.24831965323426 270.47908685826764 79.99999999999997
  endloop
endfacet
facet normal 8.066580434607912e-16 -7.783577004245848e-18 -1.0
  outer loop
    vertex 142.54831965323427 253.82908685826763 80.0
    vertex 140.24831965323426 270.47908685826764 79.99999999999997
    vertex 142.54831965323427 323.82908685826766 80.0
  endloop
endfacet
facet normal 1.0 0.0 7.04991620636975e-16
  outer loop
    vertex 142.54831965323427 323.82908685826766 80.0
    vertex 142.54831965323427 253.82908685826763 82.0
    vertex 142.54831965323427 253.82908685826763 80.0
  endloop
endfacet
facet normal 1.0 0.0 7.04991620636975e-16
  outer loop
    vertex 142.54831965323427 253.82908685826763 82.0
    vertex 142.54831965323427 323.82908685826766 80.0
    vertex 142.54831965323427 323.82908685826766 82.0
  endloop
endfacet
facet normal -1.0 0.0 5.6399329650957965e-15
  outer loop
    vertex 72.54831965323429 323.82908685826766 81.99999999999994
    vertex 72.54831965323427 253.82908685826763 79.99999999999993
    vertex 72.54831965323429 253.82908685826763 81.99999999999994
  endloop
endfacet
facet normal -1.0 0.0 5.6399329650957965e-15
  outer loop
    vertex 72.54831965323427 253.82908685826763 79.99999999999993
    vertex 72.54831965323429 323.82908685826766 81.99999999999994
    vertex 72.54831965323427 323.82908685826766 79.99999999999993
  endloop
endfacet
facet normal 0.0 -1.0 0.0
  outer loop
    vertex 142.54831965323427 253.82908685826763 80.0
    vertex 72.54831965323429 253.82908685826763 81.99999999999994
    vertex 72.54831965323427 253.82908685826763 79.99999999999993
  endloop
endfacet
facet normal 0.0 -1.0 0.0
  outer loop
    vertex 72.54831965323429 253.82908685826763 81.99999999999994
    vertex 142.54831965323427 253.82908685826763 80.0
    vertex 142.54831965323427 253.82908685826763 82.0
  endloop
endfacet
facet normal -8.59012144342736e-16 1.3863704041020557e-17 1.0
  outer loop
    vertex 72.54831965323429 253.82908685826763 81.99999999999994
    vertex 79.09831965323428 260.3790868582676 81.99999999999994
    vertex 72.54831965323429 323.82908685826766 81.99999999999994
  endloop
endfacet
facet normal -8.59012144342736e-16 1.3863704041020557e-17 1.0
  outer loop
    vertex 79.09831965323428 260.3790868582676 81.99999999999994
    vertex 72.54831965323429 253.82908685826763 81.99999999999994
    vertex 140.24831965323426 256.12908685826767 82.0
  endloop
endfacet
facet normal -8.59012144342736e-16 1.3863704041020557e-17 1.0
  outer loop
    vertex 79.09831965323428 260.3790868582676 81.99999999999994
    vertex 140.24831965323426 256.12908685826767 82.0
    vertex 135.9983196532343 260.3790868582676 82.0
  endloop
endfacet
facet normal -8.59012144342736e-16 1.3863704041020557e-17 1.0
  outer loop
    vertex 135.9983196532343 260.3790868582676 82.0
    vertex 140.24831965323426 256.12908685826767 82.0
    vertex 135.99831965323432 270.4790868582676 82.0
  endloop
endfacet
facet normal -8.59012144342736e-16 1.3863704041020557e-17 1.0
  outer loop
    vertex 135.99831965323432 270.4790868582676 82.0
    vertex 140.24831965323426 256.12908685826767 82.0
    vertex 137.99831965323426 270.4790868582676 82.00000000000001
  endloop
endfacet
facet normal -8.59012144342736e-16 1.3863704041020557e-17 1.0
  outer loop
    vertex 137.99831965323426 270.4790868582676 82.00000000000001
    vertex 140.24831965323426 256.12908685826767 82.0
    vertex 140.24831965323426 270.47908685826764 81.99999999999997
  endloop
endfacet
facet normal -8.59012144342736e-16 1.3863704041020557e-17 1.0
  outer loop
    vertex 140.24831965323426 270.47908685826764 81.99999999999997
    vertex 140.24831965323426 256.12908685826767 82.0
    vertex 142.54831965323427 253.82908685826763 82.0
  endloop
endfacet
facet normal -8.59012144342736e-16 1.3863704041020557e-17 1.0
  outer loop
    vertex 72.54831965323429 323.82908685826766 81.99999999999994
    vertex 79.09831965323428 317.27908685826765 81.99999999999994
    vertex 140.24831965323426 321.52908685826765 82.0
  endloop
endfacet
facet normal -8.59012144342736e-16 1.3863704041020557e-17 1.0
  outer loop
    vertex 79.09831965323428 317.27908685826765 81.99999999999994
    vertex 72.54831965323429 323.82908685826766 81.99999999999994
    vertex 79.09831965323428 260.3790868582676 81.99999999999994
  endloop
endfacet
facet normal -8.59012144342736e-16 1.3863704041020557e-17 1.0
  outer loop
    vertex 140.24831965323426 321.52908685826765 82.0
    vertex 79.09831965323428 317.27908685826765 81.99999999999994
    vertex 135.9983196532343 317.27908685826765 82.0
  endloop
endfacet
facet normal -8.59012144342736e-16 1.3863704041020557e-17 1.0
  outer loop
    vertex 140.24831965323426 321.52908685826765 82.0
    vertex 135.9983196532343 317.27908685826765 82.0
    vertex 137.99831965323423 307.37908685826767 82.00000000000001
  endloop
endfacet
facet normal -8.59012144342736e-16 1.3863704041020557e-17 1.0
  outer loop
    vertex 140.24831965323426 321.52908685826765 82.0
    vertex 137.99831965323423 307.37908685826767 82.00000000000001
    vertex 140.2483196532342 307.37908685826767 81.99999999999997
  endloop
endfacet
facet normal -8.59012144342736e-16 1.3863704041020557e-17 1.0
  outer loop
    vertex 140.24831965323426 321.52908685826765 82.0
    vertex 140.2483196532342 307.37908685826767 81.99999999999997
    vertex 140.24831965323426 270.47908685826764 81.99999999999997
  endloop
endfacet
facet normal -8.59012144342736e-16 1.3863704041020557e-17 1.0
  outer loop
    vertex 140.24831965323426 321.52908685826765 82.0
    vertex 140.24831965323426 270.47908685826764 81.99999999999997
    vertex 142.54831965323427 323.82908685826766 82.0
  endloop
endfacet
facet normal -8.59012144342736e-16 1.3863704041020557e-17 1.0
  outer loop
    vertex 142.54831965323427 323.82908685826766 82.0
    vertex 140.24831965323426 270.47908685826764 81.99999999999997
    vertex 142.54831965323427 253.82908685826763 82.0
  endloop
endfacet
facet normal 0.0 1.0 0.0
  outer loop
    vertex 72.54831965323429 323.82908685826766 81.99999999999994
    vertex 142.54831965323427 323.82908685826766 80.0
    vertex 72.54831965323427 323.82908685826766 79.99999999999993
  endloop
endfacet
facet normal 0.0 1.0 0.0
  outer loop
    vertex 142.54831965323427 323.82908685826766 80.0
    vertex 72.54831965323429 323.82908685826766 81.99999999999994
    vertex 142.54831965323427 323.82908685826766 82.0
  endloop
endfacet
facet normal -1.0 -1.4242254962363157e-16 -2.114974861910924e-15
  outer loop
    vertex 135.9983196532343 307.37908685826767 82.0
    vertex 135.9983196532343 317.27908685826765 80.0
    vertex 135.9983196532343 307.37908685826767 80.0
  endloop
endfacet
facet normal -1.0 -1.4242254962363157e-16 -2.114974861910924e-15
  outer loop
    vertex 135.9983196532343 317.27908685826765 80.0
    vertex 135.9983196532343 307.37908685826767 82.0
    vertex 135.9983196532343 317.27908685826765 82.0
  endloop
endfacet
facet normal -1.0 -9.361677347211842e-16 3.1724622928663843e-15
  outer loop
    vertex 140.2483196532342 307.37908685826767 81.99999999999997
    vertex 140.24831965323426 270.47908685826764 79.99999999999997
    vertex 140.24831965323426 270.47908685826764 81.99999999999997
  endloop
endfacet
facet normal -1.0 -9.361677347211842e-16 3.1724622928663843e-15
  outer loop
    vertex 140.24831965323426 270.47908685826764 79.99999999999997
    vertex 140.2483196532342 307.37908685826767 81.99999999999997
    vertex 140.24831965323423 307.37908685826767 79.99999999999997
  endloop
endfacet
facet normal 1.9764145491517565e-15 -1.0 1.9211529581392707e-15
  outer loop
    vertex 140.2483196532342 307.37908685826767 81.99999999999997
    vertex 135.9983196532343 307.37908685826767 80.0
    vertex 140.24831965323423 307.37908685826767 79.99999999999997
  endloop
endfacet
facet normal 1.9764145491517565e-15 -1.0 1.9211529581392707e-15
  outer loop
    vertex 135.9983196532343 307.37908685826767 80.0
    vertex 140.2483196532342 307.37908685826767 81.99999999999997
    vertex 135.9983196532343 307.37908685826767 82.0
  endloop
endfacet
facet normal 1.9764145491517565e-15 -1.0 1.9211529581392707e-15
  outer loop
    vertex 135.9983196532343 307.37908685826767 82.0
    vertex 140.2483196532342 307.37908685826767 81.99999999999997
    vertex 137.99831965323423 307.37908685826767 82.00000000000001
  endloop
endfacet
facet normal -2.6785618231925023e-15 1.0 8.84185456199482e-16
  outer loop
    vertex 135.9983196532343 270.4790868582676 80.0
    vertex 140.24831965323426 270.47908685826764 81.99999999999997
    vertex 140.24831965323426 270.47908685826764 79.99999999999997
  endloop
endfacet
facet normal -2.6785618231925023e-15 1.0 8.84185456199482e-16
  outer loop
    vertex 140.24831965323426 270.47908685826764 81.99999999999997
    vertex 135.9983196532343 270.4790868582676 80.0
    vertex 135.99831965323432 270.4790868582676 82.0
  endloop
endfacet
facet normal -2.6785618231925023e-15 1.0 8.84185456199482e-16
  outer loop
    vertex 140.24831965323426 270.47908685826764 81.99999999999997
    vertex 135.99831965323432 270.4790868582676 82.0
    vertex 137.99831965323426 270.4790868582676 82.00000000000001
  endloop
endfacet
facet normal -9.167547342646928e-16 -1.2735211238096548e-20 1.0
  outer loop
    vertex 72.54831965323427 253.82908685826763 91.99999999999993
    vertex 74.84831965323428 256.12908685826767 91.99999999999994
    vertex 72.54831965323427 323.82908685826766 91.99999999999993
  endloop
endfacet
facet normal -9.167547342646928e-16 -1.2735211238096548e-20 1.0
  outer loop
    vertex 74.84831965323428 256.12908685826767 91.99999999999994
    vertex 72.54831965323427 253.82908685826763 91.99999999999993
    vertex 142.54831965323424 253.82908685826763 92.0
  endloop
endfacet
facet normal -9.167547342646928e-16 -1.2735211238096548e-20 1.0
  outer loop
    vertex 74.84831965323428 256.12908685826767 91.99999999999994
    vertex 142.54831965323424 253.82908685826763 92.0
    vertex 140.24831965323423 256.12908685826767 92.0
  endloop
endfacet
facet normal -9.167547342646928e-16 -1.2735211238096548e-20 1.0
  outer loop
    vertex 140.24831965323423 256.12908685826767 92.0
    vertex 142.54831965323424 253.82908685826763 92.0
    vertex 140.24831965323423 321.52908685826765 92.0
  endloop
endfacet
facet normal -9.167547342646928e-16 -1.2735211238096548e-20 1.0
  outer loop
    vertex 72.54831965323427 323.82908685826766 91.99999999999993
    vertex 74.84831965323428 321.52908685826765 91.99999999999994
    vertex 142.54831965323424 323.82908685826766 92.0
  endloop
endfacet
facet normal -9.167547342646928e-16 -1.2735211238096548e-20 1.0
  outer loop
    vertex 74.84831965323428 321.52908685826765 91.99999999999994
    vertex 72.54831965323427 323.82908685826766 91.99999999999993
    vertex 74.84831965323428 256.12908685826767 91.99999999999994
  endloop
endfacet
facet normal -9.167547342646928e-16 -1.2735211238096548e-20 1.0
  outer loop
    vertex 142.54831965323424 323.82908685826766 92.0
    vertex 74.84831965323428 321.52908685826765 91.99999999999994
    vertex 140.24831965323423 321.52908685826765 92.0
  endloop
endfacet
facet normal -9.167547342646928e-16 -1.2735211238096548e-20 1.0
  outer loop
    vertex 142.54831965323424 323.82908685826766 92.0
    vertex 140.24831965323423 321.52908685826765 92.0
    vertex 142.54831965323424 253.82908685826763 92.0
  endloop
endfacet
facet normal -1.0 0.0 -1.127986593019159e-15
  outer loop
    vertex 72.54831965323427 323.82908685826766 91.99999999999993
    vertex 72.54831965323429 253.82908685826763 81.99999999999994
    vertex 72.54831965323427 253.82908685826763 91.99999999999993
  endloop
endfacet
facet normal -1.0 0.0 -1.127986593019159e-15
  outer loop
    vertex 72.54831965323429 253.82908685826763 81.99999999999994
    vertex 72.54831965323427 323.82908685826766 91.99999999999993
    vertex 72.54831965323429 323.82908685826766 81.99999999999994
  endloop
endfacet
facet normal 0.0 -1.0 0.0
  outer loop
    vertex 142.54831965323427 253.82908685826763 82.0
    vertex 72.54831965323427 253.82908685826763 91.99999999999993
    vertex 72.54831965323429 253.82908685826763 81.99999999999994
  endloop
endfacet
facet normal 0.0 -1.0 0.0
  outer loop
    vertex 72.54831965323427 253.82908685826763 91.99999999999993
    vertex 142.54831965323427 253.82908685826763 82.0
    vertex 142.54831965323424 253.82908685826763 92.0
  endloop
endfacet
facet normal 0.0 1.0 0.0
  outer loop
    vertex 74.84831965323428 256.12908685826767 91.99999999999994
    vertex 140.24831965323426 256.12908685826767 82.0
    vertex 74.8483196532343 256.12908685826767 81.99999999999994
  endloop
endfacet
facet normal 0.0 1.0 0.0
  outer loop
    vertex 140.24831965323426 256.12908685826767 82.0
    vertex 74.84831965323428 256.12908685826767 91.99999999999994
    vertex 140.24831965323423 256.12908685826767 92.0
  endloop
endfacet
facet normal 1.0 0.0 7.049916206369743e-16
  outer loop
    vertex 142.54831965323427 323.82908685826766 82.0
    vertex 142.54831965323424 253.82908685826763 92.0
    vertex 142.54831965323427 253.82908685826763 82.0
  endloop
endfacet
facet normal 1.0 0.0 7.049916206369743e-16
  outer loop
    vertex 142.54831965323424 253.82908685826763 92.0
    vertex 142.54831965323427 323.82908685826766 82.0
    vertex 142.54831965323424 323.82908685826766 92.0
  endloop
endfacet
facet normal 1.0 0.0 2.255973186038318e-15
  outer loop
    vertex 74.8483196532343 321.52908685826765 81.99999999999994
    vertex 74.84831965323428 256.12908685826767 91.99999999999994
    vertex 74.8483196532343 256.12908685826767 81.99999999999994
  endloop
endfacet
facet normal 1.0 0.0 2.255973186038318e-15
  outer loop
    vertex 74.84831965323428 256.12908685826767 91.99999999999994
    vertex 74.8483196532343 321.52908685826765 81.99999999999994
    vertex 74.84831965323428 321.52908685826765 91.99999999999994
  endloop
endfacet
facet normal 0.0 1.0 0.0
  outer loop
    vertex 72.54831965323427 323.82908685826766 91.99999999999993
    vertex 142.54831965323427 323.82908685826766 82.0
    vertex 72.54831965323429 323.82908685826766 81.99999999999994
  endloop
endfacet
facet normal 0.0 1.0 0.0
  outer loop
    vertex 142.54831965323427 323.82908685826766 82.0
    vertex 72.54831965323427 323.82908685826766 91.99999999999993
    vertex 142.54831965323424 323.82908685826766 92.0
  endloop
endfacet
facet normal 0.0 -1.0 0.0
  outer loop
    vertex 140.24831965323426 321.52908685826765 82.0
    vertex 74.84831965323428 321.52908685826765 91.99999999999994
    vertex 74.8483196532343 321.52908685826765 81.99999999999994
  endloop
endfacet
facet normal 0.0 -1.0 0.0
  outer loop
    vertex 74.84831965323428 321.52908685826765 91.99999999999994
    vertex 140.24831965323426 321.52908685826765 82.0
    vertex 140.24831965323423 321.52908685826765 92.0
  endloop
endfacet
facet normal -1.0 -1.7339070531915297e-16 -2.4761402074953467e-16
  outer loop
    vertex 140.24831965323423 321.52908685826765 92.0
    vertex 140.24831965323426 256.12908685826767 82.0
    vertex 140.24831965323423 256.12908685826767 92.0
  endloop
endfacet
facet normal -1.0 -1.7339070531915297e-16 -2.4761402074953467e-16
  outer loop
    vertex 140.24831965323426 256.12908685826767 82.0
    vertex 140.24831965323423 321.52908685826765 92.0
    vertex 140.24831965323426 270.47908685826764 81.99999999999997
  endloop
endfacet
facet normal -1.0 -1.7339070531915297e-16 -2.4761402074953467e-16
  outer loop
    vertex 140.24831965323426 270.47908685826764 81.99999999999997
    vertex 140.24831965323423 321.52908685826765 92.0
    vertex 140.2483196532342 307.37908685826767 81.99999999999997
  endloop
endfacet
facet normal -1.0 -1.7339070531915297e-16 -2.4761402074953467e-16
  outer loop
    vertex 140.2483196532342 307.37908685826767 81.99999999999997
    vertex 140.24831965323423 321.52908685826765 92.0
    vertex 140.24831965323426 321.52908685826765 82.0
  endloop
endfacet
facet normal 4.597762713511111e-15 -4.013695807406864e-19 -1.0
  outer loop
    vertex 140.24831965323426 321.52908685826765 82.0
    vertex 140.24831965323426 270.47908685826764 81.99999999999997
    vertex 140.2483196532342 307.37908685826767 81.99999999999997
  endloop
endfacet
facet normal 4.597762713511111e-15 -4.013695807406864e-19 -1.0
  outer loop
    vertex 140.24831965323426 270.47908685826764 81.99999999999997
    vertex 140.24831965323426 321.52908685826765 82.0
    vertex 142.54831965323427 323.82908685826766 82.0
  endloop
endfacet
facet normal 4.597762713511111e-15 -4.013695807406864e-19 -1.0
  outer loop
    vertex 140.24831965323426 270.47908685826764 81.99999999999997
    vertex 142.54831965323427 253.82908685826763 82.0
    vertex 140.24831965323426 256.12908685826767 82.0
  endloop
endfacet
facet normal 4.597762713511111e-15 -4.013695807406864e-19 -1.0
  outer loop
    vertex 142.54831965323427 253.82908685826763 82.0
    vertex 140.24831965323426 270.47908685826764 81.99999999999997
    vertex 142.54831965323427 323.82908685826766 82.0
  endloop
endfacet
facet normal -8.661325624968544e-16 -8.661325624968559e-16 1.0
  outer loop
    vertex 142.54831965323427 253.82908685826763 82.0
    vertex 140.24831965323426 256.12908685826767 82.0
    vertex 72.54831965323429 253.82908685826763 81.99999999999994
  endloop
endfacet
facet normal 8.904412021199068e-16 1.901250577209562e-19 -1.0
  outer loop
    vertex 74.8483196532343 321.52908685826765 81.99999999999994
    vertex 72.54831965323429 253.82908685826763 81.99999999999994
    vertex 72.54831965323429 323.82908685826766 81.99999999999994
  endloop
endfacet
facet normal 8.904412021199068e-16 1.901250577209562e-19 -1.0
  outer loop
    vertex 72.54831965323429 253.82908685826763 81.99999999999994
    vertex 74.8483196532343 321.52908685826765 81.99999999999994
    vertex 74.8483196532343 256.12908685826767 81.99999999999994
  endloop
endfacet
facet normal 8.904412021199068e-16 1.901250577209562e-19 -1.0
  outer loop
    vertex 72.54831965323429 253.82908685826763 81.99999999999994
    vertex 74.8483196532343 256.12908685826767 81.99999999999994
    vertex 140.24831965323426 256.12908685826767 82.0
  endloop
endfacet
facet normal -8.661325624968543e-16 8.661325624968613e-16 1.0
  outer loop
    vertex 142.54831965323427 323.82908685826766 82.0
    vertex 72.54831965323429 323.82908685826766 81.99999999999994
    vertex 140.24831965323426 321.52908685826765 82.0
  endloop
endfacet
facet normal 8.839344478934545e-16 -3.421379358230208e-16 -1.0
  outer loop
    vertex 140.24831965323426 321.52908685826765 82.0
    vertex 74.8483196532343 321.52908685826765 81.99999999999994
    vertex 72.54831965323429 323.82908685826766 81.99999999999994
  endloop
endfacet
endsolid tracker
